<svg width="199" height="60" viewBox="0 0 199 60" fill="none" xmlns="http://www.w3.org/2000/svg">
<path d="M123.299 46.8743C111.761 55.3789 95.0365 59.9164 80.6374 59.9164C60.4475 59.9164 42.2715 52.4489 28.5206 40.0291C27.4402 39.0524 28.4082 37.7214 29.7047 38.482C44.5446 47.1163 62.8935 52.3107 81.8474 52.3107C94.6303 52.3107 108.692 49.6659 121.622 44.1777C123.575 43.3479 125.209 45.4568 123.299 46.8743Z" fill="white"/>
<path d="M128.096 41.3851C126.626 39.501 118.346 40.4949 114.63 40.9357C113.498 41.074 113.325 40.0887 114.345 39.38C120.939 34.7387 131.76 36.0784 133.022 37.6341C134.284 39.1985 132.694 50.0453 126.497 55.2224C125.546 56.0176 124.638 55.5941 125.062 54.5397C126.453 51.0652 129.574 43.2779 128.096 41.3851Z" fill="white"/>
<path d="M114.889 6.61536V2.10375C114.889 1.42096 115.408 0.962891 116.03 0.962891H136.229C136.877 0.962891 137.395 1.42961 137.395 2.10375V5.96714C137.387 6.61536 136.842 7.46236 135.874 8.80201L125.408 23.7456C129.297 23.6505 133.402 24.2296 136.929 26.2175C137.724 26.6669 137.94 27.3238 138 27.972V32.7861C138 33.443 137.274 34.2122 136.514 33.8146C130.3 30.5562 122.046 30.2019 115.174 33.8492C114.474 34.2295 113.74 33.4689 113.74 32.812V28.2399C113.74 27.5053 113.748 26.2521 114.483 25.1371L126.609 7.74758H116.056C115.408 7.74758 114.889 7.28951 114.889 6.61536Z" fill="white"/>
<path d="M41.2084 34.7653H35.0633C34.4756 34.7221 34.0089 34.2813 33.9656 33.7195V2.18152C33.9656 1.55059 34.4929 1.04929 35.1497 1.04929H40.88C41.4763 1.07521 41.9517 1.5333 41.9949 2.10373V6.2264H42.1073C43.6025 2.24202 46.4114 0.383789 50.197 0.383789C54.0431 0.383789 56.4459 2.24202 58.1744 6.2264C59.661 2.24202 63.0404 0.383789 66.6618 0.383789C69.2374 0.383789 72.055 1.44687 73.7749 3.83231C75.7196 6.48569 75.322 10.3404 75.322 13.7198L75.3133 33.6244C75.3133 34.2554 74.7861 34.7653 74.1293 34.7653H67.9928C67.3792 34.7221 66.8865 34.2294 66.8865 33.6244V16.909C66.8865 15.578 67.0075 12.2592 66.7136 10.9973C66.2556 8.87978 64.8814 8.28341 63.1009 8.28341C61.6143 8.28341 60.0586 9.27735 59.4277 10.8676C58.7967 12.4579 58.8572 15.12 58.8572 16.909V33.6244C58.8572 34.2554 58.33 34.7653 57.6732 34.7653H51.5367C50.9144 34.7221 50.4304 34.2294 50.4304 33.6244L50.4217 16.909C50.4217 13.3914 51.0008 8.21427 46.6362 8.21427C42.2196 8.21427 42.3925 13.2617 42.3925 16.909V33.6244C42.3925 34.2554 41.8653 34.7653 41.2084 34.7653Z" fill="white"/>
<path d="M154.785 0.383789C163.903 0.383789 168.838 8.21427 168.838 18.1709C168.838 27.7905 163.385 35.4222 154.785 35.4222C145.831 35.4222 140.956 27.5917 140.956 17.8338C140.956 8.01548 145.891 0.383789 154.785 0.383789ZM154.837 6.82276C150.308 6.82276 150.023 12.9938 150.023 16.8399C150.023 20.6946 149.962 28.9227 154.785 28.9227C159.547 28.9227 159.772 22.2849 159.772 18.2401C159.772 15.578 159.66 12.3974 158.856 9.87371C158.164 7.67841 156.79 6.82276 154.837 6.82276Z" fill="white"/>
<path d="M180.662 34.7653H174.543C173.929 34.7221 173.436 34.2294 173.436 33.6244L173.428 2.0778C173.48 1.49872 173.99 1.04929 174.612 1.04929H180.307C180.843 1.07521 181.284 1.43823 181.405 1.93087V6.75362H181.517C183.237 2.4408 185.649 0.383789 189.892 0.383789C192.65 0.383789 195.338 1.37773 197.066 4.10024C198.674 6.62397 198.674 10.8676 198.674 13.9186V33.7714C198.605 34.3245 198.095 34.7653 197.49 34.7653H191.327C190.765 34.7221 190.299 34.3072 190.238 33.7714V16.6411C190.238 13.1926 190.636 8.14513 186.392 8.14513C184.897 8.14513 183.523 9.14771 182.84 10.6689C181.976 12.5962 181.863 14.515 181.863 16.6411V33.6244C181.855 34.2554 181.319 34.7653 180.662 34.7653Z" fill="white"/>
<path d="M98.7875 19.7005V18.3695C94.345 18.3695 89.6519 19.3202 89.6519 24.5578C89.6519 27.2112 91.0262 29.0089 93.3857 29.0089C95.1143 29.0089 96.6613 27.9458 97.638 26.2172C98.848 24.0911 98.7875 22.0946 98.7875 19.7005ZM104.984 34.6786C104.578 35.0416 103.991 35.0676 103.532 34.8256C101.493 33.1316 101.13 32.3451 100.006 30.7288C96.6354 34.1687 94.25 35.1972 89.8767 35.1972C84.7082 35.1972 80.6806 32.008 80.6806 25.6209C80.6806 20.6339 83.3858 17.2372 87.2319 15.5778C90.5681 14.1085 95.2266 13.8492 98.7875 13.443V12.6479C98.7875 11.1872 98.8999 9.45862 98.0442 8.19676C97.2923 7.06453 95.8576 6.59781 94.5957 6.59781C92.2535 6.59781 90.1619 7.79918 89.6519 10.2883C89.5482 10.8415 89.142 11.386 88.5889 11.4119L82.6253 10.7723C82.124 10.66 81.5708 10.2538 81.7091 9.48455C83.0833 2.25907 89.6087 0.0810547 95.4513 0.0810547C98.4418 0.0810547 102.348 0.876203 104.708 3.14065C107.698 5.93231 107.413 9.6574 107.413 13.7109V23.2873C107.413 26.1654 108.606 27.4272 109.729 28.983C110.127 29.5361 110.213 30.2016 109.712 30.6165C108.459 31.6623 106.229 33.6069 105.002 34.6959L104.984 34.6786Z" fill="white"/>
<path d="M18.2269 19.7005V18.3695C13.7844 18.3695 9.09134 19.3202 9.09134 24.5578C9.09134 27.2112 10.4656 29.0089 12.8251 29.0089C14.5537 29.0089 16.1007 27.9458 17.0774 26.2172C18.2874 24.0911 18.2269 22.0946 18.2269 19.7005ZM24.4239 34.6786C24.0177 35.0416 23.4299 35.0676 22.9719 34.8256C20.9321 33.1316 20.5691 32.3451 19.4456 30.7288C16.0748 34.1687 13.6894 35.1972 9.31605 35.1972C4.14759 35.1972 0.119995 32.008 0.119995 25.6209C0.119995 20.6339 2.82523 17.2372 6.67132 15.5778C10.0075 14.1085 14.666 13.8492 18.2269 13.443V12.6479C18.2269 11.1872 18.3393 9.45862 17.4836 8.19676C16.7317 7.06453 15.297 6.59781 14.0351 6.59781C11.6929 6.59781 9.60127 7.79918 9.09134 10.2883C8.98762 10.8415 8.58141 11.386 8.02826 11.4119L2.06465 10.7723C1.56336 10.66 1.01021 10.2538 1.1485 9.48455C2.52272 2.25907 9.04812 0.0810547 14.8907 0.0810547C17.8812 0.0810547 21.7878 0.876203 24.1473 3.14065C27.1377 5.93231 26.8525 9.6574 26.8525 13.7109V23.2873C26.8525 26.1654 28.0453 27.4272 29.1688 28.983C29.5664 29.5361 29.6528 30.2016 29.1515 30.6165C27.8983 31.6623 25.6685 33.6069 24.4412 34.6959L24.4239 34.6786Z" fill="white"/>
</svg>
