<svg width="177" height="59" viewBox="0 0 177 59" fill="none" xmlns="http://www.w3.org/2000/svg">
<path d="M75.4891 30.7699C75.4891 39.0982 68.9739 45.2351 60.9783 45.2351C52.9826 45.2351 46.4674 39.0982 46.4674 30.7699C46.4674 22.3829 52.9826 16.3047 60.9783 16.3047C68.9739 16.3047 75.4891 22.3829 75.4891 30.7699ZM69.137 30.7699C69.137 25.5656 65.3609 22.0047 60.9783 22.0047C56.5957 22.0047 52.8196 25.5656 52.8196 30.7699C52.8196 35.9221 56.5957 39.5351 60.9783 39.5351C65.3609 39.5351 69.137 35.9156 69.137 30.7699Z" fill="white"/>
<path d="M106.793 30.7699C106.793 39.0982 100.278 45.2351 92.2826 45.2351C84.2869 45.2351 77.7717 39.0982 77.7717 30.7699C77.7717 22.3895 84.2869 16.3047 92.2826 16.3047C100.278 16.3047 106.793 22.3829 106.793 30.7699ZM100.441 30.7699C100.441 25.5656 96.6652 22.0047 92.2826 22.0047C87.9 22.0047 84.1239 25.5656 84.1239 30.7699C84.1239 35.9221 87.9 39.5351 92.2826 39.5351C96.6652 39.5351 100.441 35.9156 100.441 30.7699Z" fill="white"/>
<path d="M136.793 17.1786V43.1482C136.793 53.8308 130.493 58.1938 123.046 58.1938C116.035 58.1938 111.815 53.5047 110.224 49.6699L115.754 47.3677C116.739 49.7221 119.152 52.5003 123.039 52.5003C127.807 52.5003 130.761 49.559 130.761 44.0221V41.9416H130.539C129.117 43.696 126.378 45.2286 122.922 45.2286C115.689 45.2286 109.063 38.9286 109.063 30.8221C109.063 22.6569 115.689 16.3047 122.922 16.3047C126.372 16.3047 129.111 17.8373 130.539 19.5395H130.761V17.1851H136.793V17.1786ZM131.211 30.8221C131.211 25.7286 127.813 22.0047 123.489 22.0047C119.107 22.0047 115.435 25.7286 115.435 30.8221C115.435 35.8634 119.107 39.5351 123.489 39.5351C127.813 39.5351 131.211 35.8634 131.211 30.8221Z" fill="white"/>
<path d="M146.739 1.95605V44.3474H140.543V1.95605H146.739Z" fill="white"/>
<path d="M170.883 35.5305L175.813 38.8174C174.222 41.1718 170.387 45.2283 163.761 45.2283C155.543 45.2283 149.406 38.8761 149.406 30.7631C149.406 22.1609 155.596 16.2979 163.05 16.2979C170.556 16.2979 174.228 22.2718 175.428 25.5L176.087 27.1435L156.75 35.1522C158.23 38.0544 160.533 39.5348 163.761 39.5348C166.996 39.5348 169.239 37.9435 170.883 35.5305ZM155.706 30.3261L168.633 24.9587C167.922 23.1522 165.783 21.8935 163.265 21.8935C160.037 21.8935 155.543 24.7435 155.706 30.3261Z" fill="white"/>
<path d="M23.0152 27.0066V20.8697H43.6956C43.8978 21.9393 44.0022 23.2045 44.0022 24.574C44.0022 29.1784 42.7435 34.8719 38.6869 38.9284C34.7413 43.0371 29.7 45.2284 23.0217 45.2284C10.6435 45.2284 0.234772 35.1458 0.234772 22.7675C0.234772 10.3892 10.6435 0.306641 23.0217 0.306641C29.8696 0.306641 34.7478 2.9936 38.413 6.49577L34.0826 10.8262C31.4543 8.36099 27.8935 6.4436 23.0152 6.4436C13.9761 6.4436 6.90651 13.7284 6.90651 22.7675C6.90651 31.8066 13.9761 39.0914 23.0152 39.0914C28.8782 39.0914 32.2174 36.7371 34.3565 34.5979C36.0913 32.8632 37.2326 30.3849 37.6826 27.0001L23.0152 27.0066Z" fill="white"/>
</svg>
