<svg width="85" height="60" viewBox="0 0 85 60" fill="none" xmlns="http://www.w3.org/2000/svg">
<path fill-rule="evenodd" clip-rule="evenodd" d="M0.317505 1.42226H13.109V35.7516C13.109 41.1844 15.5941 44.4206 17.5592 45.8078C15.4788 47.6572 9.12133 49.2755 4.38218 45.3452C1.58814 43.0286 0.317505 39.2193 0.317505 35.6359V1.42226ZM80.2592 29.9389V26.3312H84.1605V13.6746H79.8762C78.2316 6.07588 71.4664 0.381836 63.3758 0.381836C54.0554 0.381836 46.5001 7.93758 46.5001 17.2576V46.8146C49.1554 47.1878 52.3188 46.7682 55.0103 44.5363C57.8039 42.2193 59.0745 38.4103 59.0745 34.8269V33.738H65.463V21.0814H59.0745V17.2576H59.0898C59.0898 14.8908 61.0086 12.972 63.3758 12.972C65.7426 12.972 67.669 14.8908 67.669 17.2576V29.9389C67.669 39.2589 75.2324 46.8146 84.5524 46.8146V34.2244C82.1856 34.2244 80.2592 32.3057 80.2592 29.9389ZM31.8132 13.6746V32.2495C31.8132 33.304 30.9384 34.1589 29.8588 34.1589C28.7792 34.1589 27.9043 33.304 27.9043 32.2495V13.6746H15.2473V35.5206C15.2473 39.4503 16.5801 44.4206 22.6452 46.0389C28.7167 47.6589 32.2388 44.3052 32.2388 44.3052C31.9179 46.5146 29.8371 48.1329 26.4852 48.4797C23.949 48.7418 20.7056 47.9018 19.0877 47.2082V58.7823C23.2103 59.998 27.5707 60.3908 31.8379 59.5627C39.5822 58.0601 44.4698 51.5874 44.4698 42.9759V13.6746H31.8132Z" fill="white"/>
</svg>
