<svg width="282" height="60" viewBox="0 0 282 60" fill="none" xmlns="http://www.w3.org/2000/svg">
<path d="M117 12.0007V48.0008H110.75V19.7507H110.667L99.5002 48.0008H95.3335L83.9168 19.7507H83.8335V48.0008H78.0835V12.0007H87.0835L97.4169 38.6674H97.5836L108.5 12.0007H117ZM122.167 14.7507C122.167 13.7507 122.5 12.9173 123.25 12.2507C124 11.584 124.834 11.2507 125.834 11.2507C126.917 11.2507 127.834 11.584 128.5 12.2507C129.167 12.9173 129.584 13.7507 129.584 14.7507C129.584 15.7507 129.25 16.584 128.5 17.2507C127.75 17.9173 126.917 18.2507 125.834 18.2507C124.75 18.2507 123.917 17.9173 123.25 17.2507C122.584 16.5007 122.167 15.6673 122.167 14.7507ZM128.917 22.1674V48.0008H122.834V22.1674H128.917ZM147.334 43.5841C148.25 43.5841 149.25 43.4174 150.334 42.9174C151.417 42.5007 152.417 41.9174 153.334 41.2507V46.9174C152.334 47.5008 151.25 47.9174 150 48.1674C148.75 48.4174 147.417 48.5841 145.917 48.5841C142.084 48.5841 139 47.4174 136.667 45.0007C134.25 42.5841 133.084 39.5007 133.084 35.8341C133.084 31.6674 134.334 28.2507 136.75 25.584C139.167 22.9174 142.584 21.584 147.084 21.584C148.25 21.584 149.417 21.7507 150.5 22.0007C151.667 22.2507 152.584 22.6674 153.25 23.0007V28.834C152.334 28.1674 151.334 27.584 150.417 27.2507C149.417 26.9174 148.417 26.6674 147.417 26.6674C145 26.6674 143.084 27.4174 141.584 29.0007C140.084 30.584 139.417 32.6674 139.417 35.3341C139.417 37.9174 140.167 40.0007 141.584 41.4174C143 42.8341 144.917 43.5841 147.334 43.5841ZM170.584 21.7507C171.084 21.7507 171.5 21.7507 171.917 21.834C172.334 21.9174 172.667 22.0007 172.917 22.084V28.2507C172.584 28.0007 172.167 27.7507 171.5 27.584C170.834 27.4174 170.167 27.2507 169.25 27.2507C167.75 27.2507 166.5 27.9174 165.5 29.1674C164.5 30.4174 163.917 32.334 163.917 35.0007V48.0008H157.834V22.1674H163.917V26.2507H164C164.584 24.834 165.417 23.7507 166.5 22.9174C167.667 22.1674 169 21.7507 170.584 21.7507ZM173.25 35.5007C173.25 31.2507 174.5 27.834 176.834 25.334C179.25 22.834 182.584 21.584 186.834 21.584C190.834 21.584 194 22.7507 196.25 25.1674C198.5 27.584 199.667 30.834 199.667 34.9174C199.667 39.0841 198.417 42.4174 196.084 44.9174C193.667 47.4174 190.417 48.6674 186.25 48.6674C182.25 48.6674 179.084 47.5008 176.75 45.1674C174.417 42.7507 173.25 39.5007 173.25 35.5007ZM179.584 35.2507C179.584 37.9174 180.167 40.0007 181.417 41.4174C182.667 42.8341 184.417 43.5841 186.667 43.5841C188.834 43.5841 190.584 42.9174 191.75 41.4174C192.917 40.0007 193.5 37.9174 193.5 35.0841C193.5 32.334 192.917 30.2507 191.75 28.7507C190.584 27.334 188.834 26.584 186.75 26.584C184.5 26.584 182.834 27.334 181.584 28.834C180.167 30.4174 179.584 32.5007 179.584 35.2507ZM208.751 29.0007C208.751 29.834 209.001 30.584 209.584 31.084C210.167 31.584 211.334 32.1674 213.251 32.9174C215.667 33.9174 217.417 35.0007 218.334 36.1674C219.334 37.4174 219.834 38.8341 219.834 40.5841C219.834 43.0007 218.917 44.9174 217.001 46.4174C215.167 47.9174 212.584 48.5841 209.417 48.5841C208.334 48.5841 207.167 48.4174 205.834 48.1674C204.501 47.9174 203.417 47.5841 202.501 47.1674V41.1674C203.584 41.9174 204.834 42.5841 206.084 43.0007C207.334 43.4174 208.501 43.6674 209.584 43.6674C210.917 43.6674 212.001 43.5007 212.584 43.0841C213.251 42.6674 213.584 42.0841 213.584 41.1674C213.584 40.3341 213.251 39.6674 212.584 39.0007C211.917 38.4174 210.584 37.7507 208.751 37.0007C206.501 36.0841 204.917 35.0007 204.001 33.8341C203.084 32.6674 202.584 31.1674 202.584 29.334C202.584 27.0007 203.501 25.084 205.334 23.584C207.167 22.084 209.584 21.334 212.501 21.334C213.417 21.334 214.417 21.4174 215.501 21.6674C216.584 21.9174 217.584 22.1674 218.334 22.4174V28.334C217.501 27.834 216.584 27.334 215.501 26.9174C214.417 26.5007 213.334 26.334 212.334 26.334C211.167 26.334 210.251 26.584 209.667 27.0007C209.084 27.584 208.751 28.1674 208.751 29.0007ZM222.417 35.5007C222.417 31.2507 223.667 27.834 226.001 25.334C228.417 22.834 231.751 21.584 236.001 21.584C240.001 21.584 243.167 22.7507 245.417 25.1674C247.667 27.584 248.834 30.834 248.834 34.9174C248.834 39.0841 247.584 42.4174 245.251 44.9174C242.834 47.4174 239.584 48.6674 235.417 48.6674C231.417 48.6674 228.251 47.5008 225.917 45.1674C223.667 42.7507 222.417 39.5007 222.417 35.5007ZM228.751 35.2507C228.751 37.9174 229.334 40.0007 230.584 41.4174C231.834 42.8341 233.584 43.5841 235.834 43.5841C238.001 43.5841 239.751 42.9174 240.917 41.4174C242.084 40.0007 242.667 37.9174 242.667 35.0841C242.667 32.334 242.084 30.2507 240.917 28.7507C239.751 27.334 238.001 26.584 235.917 26.584C233.667 26.584 232.001 27.334 230.751 28.834C229.417 30.4174 228.751 32.5007 228.751 35.2507ZM269.084 27.1674H260.001V48.0008H253.834V27.1674H249.501V22.1674H253.834V18.584C253.834 15.9173 254.751 13.6673 256.501 11.9173C258.251 10.1673 260.501 9.33398 263.251 9.33398C264.001 9.33398 264.667 9.41732 265.251 9.41732C265.834 9.41732 266.334 9.58399 266.751 9.75065V15.0007C266.584 14.9173 266.167 14.7507 265.667 14.584C265.167 14.4173 264.584 14.334 263.917 14.334C262.667 14.334 261.667 14.7507 261.001 15.5007C260.334 16.2507 260.001 17.5007 260.001 19.0007V22.084H269.084V16.2507L275.167 14.4173V22.084H281.334V27.084H275.167V39.1674C275.167 40.7507 275.501 41.8341 276.001 42.5007C276.584 43.1674 277.501 43.5007 278.751 43.5007C279.084 43.5007 279.501 43.4174 280.001 43.2507C280.501 43.0841 280.917 42.9174 281.251 42.6674V47.6674C280.834 47.9174 280.251 48.0841 279.334 48.2508C278.417 48.4174 277.584 48.5008 276.667 48.5008C274.084 48.5008 272.167 47.8341 270.917 46.5008C269.667 45.1674 269.001 43.0841 269.001 40.3341L269.084 27.1674Z" fill="white"/>
<path d="M28.5001 0H0V28.5001H28.5001V0Z" fill="white"/>
<path d="M60.0002 0H31.5001V28.5001H60.0002V0Z" fill="white"/>
<path d="M28.5001 31.5H0V60.0001H28.5001V31.5Z" fill="white"/>
<path d="M60.0002 31.5H31.5001V60.0001H60.0002V31.5Z" fill="white"/>
</svg>
