<svg width="223" height="60" viewBox="0 0 223 60" fill="none" xmlns="http://www.w3.org/2000/svg">
<path d="M30.5273 56.1326C27.1876 56.719 23.7891 56.8949 20.2735 57.3632L9.55063 25.9572V58.7111C6.21091 59.0625 3.1641 59.5313 0 60V0H8.90649L21.0937 34.0435V0H30.5273V56.1326ZM48.9844 21.9727C52.6175 21.9727 58.1838 21.7968 61.5235 21.7968V31.1716C57.3632 31.1716 52.5002 31.1716 48.9844 31.3475V45.293C54.4924 44.9416 60.0002 44.4724 65.5663 44.2966V53.3195L39.6092 55.3707V0H65.5663V9.37501H48.9844V21.9727ZM100.43 9.37523H90.7031V52.5002C87.539 52.5002 84.3749 52.5002 81.3285 52.617V9.37523H71.6021V0H100.43L100.43 9.37523ZM115.664 21.3283H128.496V30.7031H115.664V51.9729H106.464V0H132.656V9.37501H115.664V21.3283ZM147.89 43.7695C153.223 43.8864 158.613 44.2972 163.828 44.5897V53.8476C155.449 53.3199 147.07 52.7933 138.516 52.617V0H147.89V43.7695ZM171.738 54.4922C174.726 54.6682 177.89 54.8441 180.937 55.1951V0H171.738V54.4922ZM222.012 0L210.117 28.5352L222.012 60C218.496 59.5313 214.98 58.8867 211.465 58.3007L204.727 40.9573L197.872 56.8949C194.473 56.3084 191.191 56.1326 187.794 55.6638L199.864 28.1834L188.965 0H199.043L205.195 15.7618L211.758 0L222.012 0Z" fill="white"/>
</svg>
