<svg width="200" height="60" viewBox="0 0 200 60" fill="none" xmlns="http://www.w3.org/2000/svg">
<path d="M29.9985 0.0986328C13.481 0.0986328 0.090332 13.489 0.090332 30.0065C0.090332 46.5247 13.481 59.914 29.9985 59.914C46.5178 59.914 59.9071 46.5247 59.9071 30.0065C59.9071 13.4901 46.5178 0.100061 29.9982 0.100061L29.9985 0.0986328ZM43.7143 43.2343C43.1785 44.1129 42.0285 44.3915 41.15 43.8522C34.1278 39.5629 25.2878 38.5915 14.8771 40.9701C13.8739 41.1986 12.8739 40.5701 12.6453 39.5665C12.4157 38.5629 13.0418 37.5629 14.0475 37.3343C25.4403 34.7315 35.2128 35.8522 43.0964 40.6701C43.975 41.2093 44.2535 42.3558 43.7143 43.2343ZM47.375 35.0908C46.7 36.1879 45.2643 36.5343 44.1678 35.8593C36.1285 30.9179 23.8739 29.4868 14.365 32.3733C13.1318 32.7458 11.8293 32.0508 11.455 30.8197C11.0835 29.5865 11.7789 28.2865 13.01 27.9115C23.8718 24.6158 37.375 26.2122 46.6071 31.8854C47.7035 32.5604 48.05 33.9958 47.375 35.0908ZM47.6893 26.6108C38.05 20.8854 22.1464 20.359 12.9432 23.1522C11.4653 23.6004 9.90247 22.7661 9.45462 21.2883C9.00676 19.8097 9.84033 18.2479 11.3193 17.7986C21.8839 14.5915 39.4464 15.2111 50.5443 21.7993C51.8764 22.5883 52.3121 24.3051 51.5228 25.6326C50.7371 26.9618 49.0157 27.4001 47.6907 26.6108H47.6893ZM81.4607 27.7079C76.2964 26.4765 75.3785 25.6122 75.3785 23.7961C75.3785 22.0804 76.9928 20.9258 79.3964 20.9258C81.725 20.9258 84.0321 21.8026 86.4535 23.6076C86.525 23.6622 86.6178 23.684 86.7071 23.6697C86.8 23.6561 86.8785 23.6065 86.9321 23.5318L89.4535 19.9776C89.5571 19.8311 89.5285 19.6293 89.3893 19.5176C86.5071 17.2058 83.2643 16.0818 79.4714 16.0818C73.8964 16.0818 70 19.4279 70 24.2154C70 29.3493 73.3607 31.1672 79.1678 32.5704C84.1071 33.7086 84.9428 34.6622 84.9428 36.3665C84.9428 38.2558 83.2571 39.4308 80.5428 39.4308C77.5285 39.4308 75.0678 38.4129 72.3178 36.0343C72.25 35.9736 72.1571 35.9486 72.0714 35.9522C71.9785 35.9593 71.8964 36.0022 71.8393 36.0701L69.0107 39.4343C68.8928 39.5772 68.9071 39.7843 69.0428 39.9058C72.2428 42.7629 76.1785 44.2701 80.4285 44.2701C86.4357 44.2701 90.3178 40.9879 90.3178 35.9058C90.3285 31.6176 87.7607 29.2426 81.4714 27.7126L81.4607 27.7079ZM103.911 22.6151C101.307 22.6151 99.1714 23.6408 97.4071 25.7426V23.3768C97.4071 23.1901 97.2571 23.0379 97.0714 23.0379H92.4464C92.2607 23.0379 92.1107 23.1901 92.1107 23.3768V49.6629C92.1107 49.8486 92.2607 50.0022 92.4464 50.0022H97.0714C97.2571 50.0022 97.4071 49.8486 97.4071 49.6629V41.3665C99.1714 43.3415 101.307 44.3093 103.911 44.3093C108.75 44.3093 113.65 40.5843 113.65 33.4633C113.657 26.3408 108.757 22.6147 103.914 22.6147L103.911 22.6151ZM108.271 33.4633C108.271 37.0879 106.039 39.6201 102.839 39.6201C99.6786 39.6201 97.2928 36.9736 97.2928 33.4633C97.2928 29.9526 99.6786 27.3068 102.839 27.3068C105.986 27.3065 108.271 29.8954 108.271 33.4633ZM126.204 22.6151C119.971 22.6151 115.089 27.4136 115.089 33.5408C115.089 39.6022 119.939 44.3486 126.129 44.3486C132.382 44.3486 137.279 39.5665 137.279 33.4633C137.279 27.3808 132.414 22.6158 126.204 22.6158V22.6151ZM126.204 39.6558C122.889 39.6558 120.389 36.9915 120.389 33.4615C120.389 29.9154 122.804 27.3422 126.129 27.3422C129.464 27.3422 131.979 30.0054 131.979 33.539C131.979 37.0843 129.55 39.6558 126.204 39.6558ZM150.586 23.0379H145.496V17.8358C145.496 17.6493 145.346 17.4972 145.161 17.4972H140.536C140.35 17.4972 140.196 17.6493 140.196 17.8358V23.0379H137.975C137.789 23.0379 137.639 23.1901 137.639 23.3768V27.3508C137.639 27.5372 137.789 27.6897 137.975 27.6897H140.196V37.9736C140.196 42.1272 142.264 44.2343 146.346 44.2343C148.004 44.2343 149.379 43.8915 150.675 43.1558C150.782 43.0986 150.846 42.9843 150.846 42.8629V39.0772C150.846 38.9629 150.786 38.8522 150.686 38.7915C150.586 38.7272 150.461 38.7236 150.357 38.7772C149.468 39.2236 148.607 39.4308 147.643 39.4308C146.161 39.4308 145.496 38.7558 145.496 37.2486V27.6915H150.586C150.771 27.6915 150.921 27.5393 150.921 27.3526V23.379C150.929 23.1922 150.779 23.0401 150.589 23.0401L150.586 23.0379ZM168.314 23.0583V22.4193C168.314 20.5397 169.036 19.7015 170.65 19.7015C171.614 19.7015 172.389 19.8929 173.257 20.1822C173.364 20.2158 173.475 20.199 173.561 20.1351C173.65 20.0711 173.7 19.9686 173.7 19.8601V15.9636C173.7 15.8147 173.607 15.6829 173.461 15.639C172.546 15.3665 171.375 15.0868 169.618 15.0868C165.35 15.0868 163.089 17.4918 163.089 22.0393V23.0179H160.868C160.682 23.0179 160.529 23.1701 160.529 23.3565V27.3508C160.529 27.5372 160.682 27.6897 160.868 27.6897H163.089V43.5486C163.089 43.7379 163.243 43.8879 163.429 43.8879H168.05C168.239 43.8879 168.389 43.7379 168.389 43.5486V27.6908H172.707L179.321 43.5486C178.571 45.2129 177.832 45.5451 176.825 45.5451C176.011 45.5451 175.15 45.3022 174.275 44.8201C174.193 44.7772 174.093 44.7701 174.007 44.7951C173.918 44.8272 173.843 44.8915 173.807 44.9772L172.239 48.4165C172.164 48.5808 172.229 48.7701 172.386 48.8558C174.021 49.7415 175.496 50.1201 177.321 50.1201C180.736 50.1201 182.625 48.5272 184.286 44.2486L192.307 23.5211C192.35 23.4168 192.336 23.299 192.271 23.2065C192.211 23.1147 192.107 23.0593 191.996 23.0593H187.182C187.036 23.0593 186.907 23.1511 186.861 23.2865L181.929 37.3701L176.529 23.2772C176.479 23.1461 176.354 23.0593 176.214 23.0593H168.314V23.0583ZM158.036 23.0379H153.411C153.225 23.0379 153.071 23.1901 153.071 23.3768V43.5486C153.071 43.7379 153.225 43.8879 153.411 43.8879H158.036C158.221 43.8879 158.375 43.7379 158.375 43.5486V23.3783C158.375 23.1915 158.225 23.0393 158.036 23.0393V23.0379ZM155.75 13.8526C153.918 13.8526 152.432 15.3354 152.432 17.1672C152.432 19.0001 153.918 20.4847 155.75 20.4847C157.582 20.4847 159.064 19.0001 159.064 17.1672C159.064 15.3358 157.579 13.8526 155.75 13.8526ZM196.257 29.524C194.429 29.524 193.004 28.0543 193.004 26.2697C193.004 24.4851 194.446 22.9986 196.275 22.9986C198.104 22.9986 199.529 24.4679 199.529 26.2511C199.529 28.0358 198.086 29.524 196.257 29.524ZM196.275 23.3222C194.607 23.3222 193.346 24.6472 193.346 26.2697C193.346 27.8915 194.6 29.1986 196.257 29.1986C197.925 29.1986 199.186 27.8747 199.186 26.2511C199.186 24.6293 197.932 23.3222 196.275 23.3222ZM196.996 26.5858L197.918 27.8743H197.139L196.311 26.6922H195.6V27.8743H194.95V24.4586H196.471C197.268 24.4586 197.789 24.8647 197.789 25.5483C197.793 26.1083 197.468 26.4504 197 26.5858H196.996ZM196.446 25.0447H195.6V26.1251H196.446C196.868 26.1251 197.121 25.9183 197.121 25.5843C197.121 25.2329 196.868 25.0447 196.446 25.0447Z" fill="white"/>
</svg>
