<svg width="173" height="60" viewBox="0 0 173 60" fill="none" xmlns="http://www.w3.org/2000/svg">
<path d="M9.94378 42.8512C10.6742 44.7895 11.6854 46.4468 12.9776 47.8231C14.2698 49.1996 15.8006 50.2529 17.5702 50.9833C19.3399 51.7137 21.264 52.0788 23.3427 52.0788C25.3653 52.0788 27.2613 51.6995 29.031 50.941C30.8008 50.1825 32.3456 49.1151 33.6658 47.7388C34.986 46.3624 36.0113 44.7192 36.7417 42.8091C37.4721 40.8989 37.8372 38.7643 37.8372 36.4046V0H46.6855V58.9888H37.9215V53.5112C35.9552 55.5897 33.6376 57.1909 30.9691 58.3147C28.3005 59.4382 25.4215 60 22.3316 60C19.1853 60 16.25 59.4522 13.5252 58.3567C10.8006 57.2612 8.44088 55.7024 6.44664 53.6798C4.4524 51.6572 2.8792 49.2278 1.72759 46.3905C0.575803 43.5535 0 40.3934 0 36.9101V0H8.8483V36.4046C8.8483 38.7643 9.2134 40.9129 9.94378 42.8512Z" fill="white"/>
<path d="M61.9376 0V21.4887C63.9038 19.5225 66.1793 17.9636 68.7635 16.8118C71.3477 15.66 74.1568 15.0842 77.1904 15.0842C80.3366 15.0842 83.2857 15.674 86.0387 16.8538C88.7914 18.0335 91.1789 19.6347 93.2015 21.6573C95.2241 23.6799 96.8253 26.0674 98.005 28.8201C99.1848 31.5731 99.7746 34.4944 99.7746 37.5844C99.7746 40.6741 99.1848 43.5814 98.005 46.306C96.8253 49.0309 95.2241 51.4045 93.2015 53.4267C91.1789 55.4493 88.7914 57.0505 86.0387 58.2303C83.2857 59.41 80.3364 59.9998 77.1904 59.9998C74.1566 59.9998 71.3337 59.424 68.7213 58.2722C66.109 57.1206 63.8196 55.5616 61.8533 53.5953V58.9886H53.4264V0H61.9376ZM62.9066 43.3989C63.665 45.1968 64.7185 46.7698 66.0668 48.1181C67.4151 49.4664 68.9882 50.5339 70.7859 51.3204C72.5838 52.107 74.5219 52.5002 76.6006 52.5002C78.6232 52.5002 80.5331 52.107 82.3308 51.3204C84.1285 50.5339 85.6874 49.4666 87.0079 48.1181C88.3281 46.77 89.3814 45.1968 90.1679 43.3989C90.9544 41.6012 91.3477 39.6631 91.3477 37.5844C91.3477 35.5056 90.9544 33.5534 90.1679 31.7275C89.3814 29.9016 88.3281 28.3146 87.0079 26.9663C85.6875 25.6182 84.1287 24.5647 82.3308 23.8063C80.5329 23.0479 78.623 22.6685 76.6006 22.6685C74.5782 22.6685 72.668 23.0478 70.8703 23.8063C69.0726 24.5648 67.4996 25.6182 66.1511 26.9663C64.803 28.3146 63.7355 29.9016 62.9489 31.7275C62.1624 33.5534 61.7692 35.5056 61.7692 37.5844C61.769 39.6631 62.1483 41.6012 62.9066 43.3989Z" fill="white"/>
<path d="M104.577 28.9047C105.701 26.208 107.246 23.8345 109.212 21.784C111.178 19.7334 113.51 18.1183 116.206 16.9385C118.903 15.7587 121.824 15.1689 124.97 15.1689C128.06 15.1689 130.926 15.7308 133.566 16.8542C136.206 17.9778 138.482 19.5369 140.392 21.5313C142.302 23.5255 143.791 25.8852 144.858 28.6099C145.926 31.3347 146.459 34.2982 146.459 37.5005V40.2814H111.487C111.768 42.023 112.33 43.6382 113.173 45.1267C114.016 46.6154 115.069 47.9076 116.333 49.0031C117.597 50.0988 119.029 50.9556 120.631 51.5733C122.232 52.1913 123.931 52.5005 125.729 52.5005C130.841 52.5005 134.971 50.3936 138.117 46.18L144.268 50.7305C142.134 53.5957 139.493 55.843 136.347 57.4722C133.201 59.1013 129.662 59.916 125.729 59.916C122.527 59.916 119.535 59.354 116.754 58.2305C113.973 57.1071 111.558 55.5339 109.507 53.5113C107.457 51.4887 105.842 49.1152 104.662 46.3906C103.482 43.6659 102.892 40.7023 102.892 37.5001C102.892 34.4665 103.454 31.6013 104.577 28.9047ZM116.417 25.5759C114.029 27.5703 112.442 30.2248 111.656 33.5394H137.864C137.134 30.2248 135.574 27.5703 133.187 25.5759C130.799 23.5817 128.004 22.5845 124.802 22.5845C121.6 22.5845 118.805 23.5817 116.417 25.5759Z" fill="white"/>
<path d="M162.386 26.5447C160.588 28.511 159.689 31.1795 159.689 34.5504V58.9888H151.178V16.0111H159.605V21.3202C160.672 19.5786 162.062 18.2021 163.776 17.1909C165.489 16.1795 167.526 15.6738 169.886 15.6738H172.835V23.5952H169.296C166.487 23.5954 164.183 24.5784 162.386 26.5447Z" fill="white"/>
</svg>
