<svg width="880" height="345" viewBox="0 0 880 345" fill="none" xmlns="http://www.w3.org/2000/svg">
<g opacity="0.25">
<line opacity="0.25" x1="74.5" y1="238.5" x2="74.5" y2="447.5" stroke="url(#paint0_linear_222_528)" stroke-linecap="round" stroke-dasharray="0.1 5"/>
<line opacity="0.25" x1="74.5" y1="96.5" x2="74.5" y2="130.5" stroke="url(#paint1_linear_222_528)" stroke-linecap="round" stroke-dasharray="0.1 5"/>
</g>
<g opacity="0.25">
<line opacity="0.25" x1="190.5" y1="238.5" x2="190.5" y2="447.5" stroke="url(#paint2_linear_222_528)" stroke-linecap="round" stroke-dasharray="0.1 5"/>
<line opacity="0.25" x1="190.5" y1="96.5" x2="190.5" y2="130.5" stroke="url(#paint3_linear_222_528)" stroke-linecap="round" stroke-dasharray="0.1 5"/>
</g>
<g opacity="0.25">
<line opacity="0.25" x1="307.5" y1="238.5" x2="307.5" y2="447.5" stroke="url(#paint4_linear_222_528)" stroke-linecap="round" stroke-dasharray="0.1 5"/>
<line opacity="0.25" x1="307.5" y1="96.5" x2="307.5" y2="130.5" stroke="url(#paint5_linear_222_528)" stroke-linecap="round" stroke-dasharray="0.1 5"/>
</g>
<g opacity="0.25">
<line opacity="0.25" x1="424.5" y1="238.5" x2="424.5" y2="447.5" stroke="url(#paint6_linear_222_528)" stroke-linecap="round" stroke-dasharray="0.1 5"/>
<line opacity="0.25" x1="424.5" y1="96.5" x2="424.5" y2="130.5" stroke="url(#paint7_linear_222_528)" stroke-linecap="round" stroke-dasharray="0.1 5"/>
</g>
<g opacity="0.25">
<line opacity="0.25" x1="541.5" y1="131.5" x2="541.5" y2="447.5" stroke="url(#paint8_linear_222_528)" stroke-linecap="round" stroke-dasharray="0.1 5"/>
<line opacity="0.25" x1="541.5" y1="96.5" x2="541.5" y2="130.5" stroke="url(#paint9_linear_222_528)" stroke-linecap="round" stroke-dasharray="0.1 5"/>
</g>
<g opacity="0.25">
<line opacity="0.25" x1="658.5" y1="131.5" x2="658.5" y2="447.5" stroke="url(#paint10_linear_222_528)" stroke-linecap="round" stroke-dasharray="0.1 5"/>
<line opacity="0.25" x1="658.5" y1="96.5" x2="658.5" y2="130.5" stroke="url(#paint11_linear_222_528)" stroke-linecap="round" stroke-dasharray="0.1 5"/>
</g>
<g opacity="0.25">
<line opacity="0.25" x1="775.5" y1="131.5" x2="775.5" y2="447.5" stroke="url(#paint12_linear_222_528)" stroke-linecap="round" stroke-dasharray="0.1 5"/>
<line opacity="0.25" x1="775.5" y1="96.5" x2="775.5" y2="130.5" stroke="url(#paint13_linear_222_528)" stroke-linecap="round" stroke-dasharray="0.1 5"/>
</g>
<path opacity="0.5" d="M67.8064 80.7273H68.6871V85.9261C68.6871 86.3902 68.6018 86.7843 68.4314 87.1087C68.2609 87.433 68.0206 87.6792 67.7105 87.8473C67.4004 88.0154 67.0346 88.0994 66.6132 88.0994C66.2155 88.0994 65.8615 88.0272 65.5514 87.8828C65.2413 87.736 64.9974 87.5277 64.8199 87.2578C64.6423 86.9879 64.5535 86.6671 64.5535 86.2955H65.42C65.42 86.5014 65.4709 86.6813 65.5727 86.8352C65.6769 86.9867 65.8189 87.1051 65.9988 87.1903C66.1788 87.2756 66.3836 87.3182 66.6132 87.3182C66.8665 87.3182 67.0819 87.2649 67.2595 87.1584C67.4371 87.0518 67.572 86.8956 67.6643 86.6896C67.759 86.4813 67.8064 86.2268 67.8064 85.9261V80.7273ZM70.7503 88H69.827L72.4974 80.7273H73.4065L76.077 88H75.1537L72.9804 81.8778H72.9236L70.7503 88ZM71.0912 85.1591H74.8128V85.9403H71.0912V85.1591ZM82.9768 80.7273V88H82.1246L78.1615 82.2898H78.0905V88H77.2098V80.7273H78.0621L82.0393 86.4517H82.1104V80.7273H82.9768Z" fill="#96BAC5"/>
<path opacity="0.5" d="M181.373 88V80.7273H185.733V81.5085H182.253V83.9659H185.407V84.7472H182.253V88H181.373ZM187.242 88V80.7273H191.631V81.5085H188.122V83.9659H191.404V84.7472H188.122V87.2188H191.688V88H187.242ZM193.218 88V80.7273H195.761C196.268 80.7273 196.685 80.8149 197.014 80.9901C197.344 81.1629 197.589 81.3961 197.75 81.6896C197.911 81.9808 197.991 82.304 197.991 82.6591C197.991 82.9716 197.935 83.2296 197.824 83.4332C197.715 83.6368 197.571 83.7978 197.391 83.9162C197.213 84.0346 197.02 84.1222 196.812 84.179V84.25C197.035 84.2642 197.258 84.3423 197.483 84.4844C197.708 84.6264 197.896 84.83 198.048 85.0952C198.199 85.3603 198.275 85.6847 198.275 86.0682C198.275 86.4328 198.192 86.7607 198.027 87.0518C197.861 87.343 197.599 87.5739 197.242 87.7443C196.884 87.9148 196.419 88 195.846 88H193.218ZM194.099 87.2188H195.846C196.421 87.2188 196.83 87.1075 197.071 86.8849C197.315 86.66 197.437 86.3878 197.437 86.0682C197.437 85.822 197.374 85.5947 197.249 85.3864C197.123 85.1757 196.945 85.0076 196.713 84.8821C196.481 84.7543 196.206 84.6903 195.889 84.6903H194.099V87.2188ZM194.099 83.9233H195.733C195.998 83.9233 196.237 83.8712 196.45 83.767C196.665 83.6629 196.836 83.5161 196.961 83.3267C197.089 83.1373 197.153 82.9148 197.153 82.6591C197.153 82.3395 197.042 82.0684 196.819 81.8459C196.597 81.621 196.244 81.5085 195.761 81.5085H194.099V83.9233Z" fill="#96BAC5"/>
<path opacity="0.5" d="M296.689 80.7273H297.74L300.211 86.7642H300.296L302.768 80.7273H303.819V88H302.995V82.4744H302.924L300.652 88H299.856L297.583 82.4744H297.512V88H296.689V80.7273ZM305.883 88H304.96L307.63 80.7273H308.54L311.21 88H310.287L308.113 81.8778H308.057L305.883 88ZM306.224 85.1591H309.946V85.9403H306.224V85.1591ZM312.343 88V80.7273H314.8C315.368 80.7273 315.835 80.8243 316.199 81.0185C316.564 81.2102 316.834 81.4742 317.009 81.8104C317.184 82.1465 317.272 82.5289 317.272 82.9574C317.272 83.3859 317.184 83.7659 317.009 84.0973C316.834 84.4287 316.565 84.6892 316.203 84.8786C315.841 85.0656 315.378 85.1591 314.814 85.1591H312.826V84.3636H314.786C315.174 84.3636 315.487 84.3068 315.724 84.1932C315.963 84.0795 316.135 83.9186 316.242 83.7102C316.351 83.4995 316.405 83.2486 316.405 82.9574C316.405 82.6662 316.351 82.4117 316.242 82.1939C316.133 81.9761 315.959 81.808 315.72 81.6896C315.481 81.5689 315.165 81.5085 314.772 81.5085H313.224V88H312.343ZM315.766 84.733L317.556 88H316.533L314.772 84.733H315.766Z" fill="#96BAC5"/>
<path opacity="0.5" d="M415.928 88H415.005L417.675 80.7273H418.584L421.255 88H420.331L418.158 81.8778H418.101L415.928 88ZM416.269 85.1591H419.991V85.9403H416.269V85.1591ZM422.388 88V80.7273H424.845C425.415 80.7273 425.882 80.8303 426.244 81.0362C426.609 81.2398 426.879 81.5156 427.054 81.8636C427.229 82.2116 427.316 82.5999 427.316 83.0284C427.316 83.4569 427.229 83.8464 427.054 84.1967C426.881 84.5471 426.613 84.8265 426.251 85.0348C425.889 85.2408 425.425 85.3438 424.859 85.3438H423.098V84.5625H424.831C425.221 84.5625 425.535 84.495 425.772 84.3601C426.008 84.2251 426.18 84.0429 426.287 83.8132C426.396 83.5812 426.45 83.3196 426.45 83.0284C426.45 82.7372 426.396 82.4768 426.287 82.2472C426.18 82.0175 426.007 81.8376 425.768 81.7074C425.529 81.5748 425.212 81.5085 424.816 81.5085H423.268V88H422.388ZM428.735 88V80.7273H431.193C431.761 80.7273 432.227 80.8243 432.592 81.0185C432.956 81.2102 433.226 81.4742 433.401 81.8104C433.577 82.1465 433.664 82.5289 433.664 82.9574C433.664 83.3859 433.577 83.7659 433.401 84.0973C433.226 84.4287 432.957 84.6892 432.595 84.8786C432.233 85.0656 431.77 85.1591 431.207 85.1591H429.218V84.3636H431.178C431.567 84.3636 431.879 84.3068 432.116 84.1932C432.355 84.0795 432.528 83.9186 432.634 83.7102C432.743 83.4995 432.798 83.2486 432.798 82.9574C432.798 82.6662 432.743 82.4117 432.634 82.1939C432.525 81.9761 432.351 81.808 432.112 81.6896C431.873 81.5689 431.557 81.5085 431.164 81.5085H429.616V88H428.735ZM432.158 84.733L433.948 88H432.926L431.164 84.733H432.158Z" fill="#96BAC5"/>
<path opacity="0.5" d="M531.766 80.7273H532.817L535.289 86.7642H535.374L537.846 80.7273H538.897V88H538.073V82.4744H538.002L535.729 88H534.934L532.661 82.4744H532.59V88H531.766V80.7273ZM540.961 88H540.038L542.708 80.7273H543.617L546.288 88H545.364L543.191 81.8778H543.134L540.961 88ZM541.302 85.1591H545.023V85.9403H541.302V85.1591ZM546.053 80.7273H547.062L549.079 84.1222H549.164L551.181 80.7273H552.19L549.562 85.0028V88H548.681V85.0028L546.053 80.7273Z" fill="#96BAC5"/>
<path opacity="0.5" d="M652.812 80.7273H653.693V85.9261C653.693 86.3902 653.608 86.7843 653.437 87.1087C653.267 87.433 653.027 87.6792 652.717 87.8473C652.406 88.0154 652.041 88.0994 651.619 88.0994C651.222 88.0994 650.868 88.0272 650.558 87.8828C650.247 87.736 650.004 87.5277 649.826 87.2578C649.648 86.9879 649.56 86.6671 649.56 86.2955H650.426C650.426 86.5014 650.477 86.6813 650.579 86.8352C650.683 86.9867 650.825 87.1051 651.005 87.1903C651.185 87.2756 651.39 87.3182 651.619 87.3182C651.873 87.3182 652.088 87.2649 652.266 87.1584C652.443 87.0518 652.578 86.8956 652.67 86.6896C652.765 86.4813 652.812 86.2268 652.812 85.9261V80.7273ZM660.231 80.7273H661.111V85.5426C661.111 86.0398 660.994 86.4837 660.76 86.8743C660.528 87.2625 660.2 87.5691 659.776 87.794C659.352 88.0166 658.855 88.1278 658.285 88.1278C657.714 88.1278 657.217 88.0166 656.793 87.794C656.37 87.5691 656.04 87.2625 655.806 86.8743C655.574 86.4837 655.458 86.0398 655.458 85.5426V80.7273H656.339V85.4716C656.339 85.8267 656.417 86.1428 656.573 86.4197C656.729 86.6944 656.952 86.911 657.241 87.0696C657.532 87.2259 657.88 87.304 658.285 87.304C658.69 87.304 659.038 87.2259 659.329 87.0696C659.62 86.911 659.843 86.6944 659.996 86.4197C660.153 86.1428 660.231 85.8267 660.231 85.4716V80.7273ZM668.637 80.7273V88H667.785L663.822 82.2898H663.751V88H662.87V80.7273H663.722L667.7 86.4517H667.771V80.7273H668.637Z" fill="#96BAC5"/>
<path opacity="0.5" d="M769.931 80.7273H770.812V85.9261C770.812 86.3902 770.727 86.7843 770.556 87.1087C770.386 87.433 770.146 87.6792 769.835 87.8473C769.525 88.0154 769.16 88.0994 768.738 88.0994C768.34 88.0994 767.987 88.0272 767.676 87.8828C767.366 87.736 767.122 87.5277 766.945 87.2578C766.767 86.9879 766.679 86.6671 766.679 86.2955H767.545C767.545 86.5014 767.596 86.6813 767.698 86.8352C767.802 86.9867 767.944 87.1051 768.124 87.1903C768.304 87.2756 768.509 87.3182 768.738 87.3182C768.992 87.3182 769.207 87.2649 769.384 87.1584C769.562 87.0518 769.697 86.8956 769.789 86.6896C769.884 86.4813 769.931 86.2268 769.931 85.9261V80.7273ZM777.35 80.7273H778.23V85.5426C778.23 86.0398 778.113 86.4837 777.879 86.8743C777.647 87.2625 777.319 87.5691 776.895 87.794C776.471 88.0166 775.974 88.1278 775.404 88.1278C774.833 88.1278 774.336 88.0166 773.912 87.794C773.488 87.5691 773.159 87.2625 772.925 86.8743C772.693 86.4837 772.577 86.0398 772.577 85.5426V80.7273H773.458V85.4716C773.458 85.8267 773.536 86.1428 773.692 86.4197C773.848 86.6944 774.071 86.911 774.36 87.0696C774.651 87.2259 774.999 87.304 775.404 87.304C775.809 87.304 776.157 87.2259 776.448 87.0696C776.739 86.911 776.961 86.6944 777.115 86.4197C777.272 86.1428 777.35 85.8267 777.35 85.4716V80.7273ZM779.989 88V80.7273H780.87V87.2188H784.25V88H779.989Z" fill="#96BAC5"/>
<line opacity="0.25" x1="15.5" y1="54.5" x2="852.5" y2="54.5" stroke="url(#paint14_linear_222_528)" stroke-linecap="round" stroke-dasharray="0.1 5"/>
<path opacity="0.5" d="M19.0387 30V20.5455H22.4087C23.1412 20.5455 23.7491 20.6716 24.2322 20.924C24.7185 21.1764 25.0817 21.5257 25.3217 21.9719C25.5618 22.4151 25.6818 22.9276 25.6818 23.5092C25.6818 24.0878 25.5603 24.5972 25.3171 25.0373C25.0771 25.4743 24.7139 25.8144 24.2276 26.0575C23.7444 26.3007 23.1366 26.4222 22.4041 26.4222H19.8512V25.1942H22.2749C22.7365 25.1942 23.112 25.1281 23.4013 24.9957C23.6937 24.8634 23.9076 24.671 24.043 24.4187C24.1784 24.1663 24.2461 23.8632 24.2461 23.5092C24.2461 23.1522 24.1768 22.8429 24.0384 22.5813C23.9029 22.3197 23.689 22.1197 23.3967 21.9812C23.1074 21.8396 22.7273 21.7688 22.2564 21.7688H20.4652V30H19.0387ZM23.706 25.7344L26.0419 30H24.4169L22.1271 25.7344H23.706ZM30.2048 30.1431C29.54 30.1431 28.9599 29.9908 28.4644 29.6861C27.9689 29.3814 27.5842 28.9551 27.3103 28.4073C27.0364 27.8595 26.8994 27.2193 26.8994 26.4869C26.8994 25.7513 27.0364 25.1081 27.3103 24.5572C27.5842 24.0063 27.9689 23.5785 28.4644 23.2738C28.9599 22.9691 29.54 22.8168 30.2048 22.8168C30.8696 22.8168 31.4497 22.9691 31.9452 23.2738C32.4407 23.5785 32.8254 24.0063 33.0993 24.5572C33.3733 25.1081 33.5102 25.7513 33.5102 26.4869C33.5102 27.2193 33.3733 27.8595 33.0993 28.4073C32.8254 28.9551 32.4407 29.3814 31.9452 29.6861C31.4497 29.9908 30.8696 30.1431 30.2048 30.1431ZM30.2094 28.9844C30.6403 28.9844 30.9973 28.8705 31.2805 28.6428C31.5636 28.415 31.7729 28.1119 31.9083 27.7333C32.0468 27.3548 32.116 26.9377 32.116 26.4822C32.116 26.0298 32.0468 25.6143 31.9083 25.2358C31.7729 24.8542 31.5636 24.5479 31.2805 24.3171C30.9973 24.0863 30.6403 23.9709 30.2094 23.9709C29.7755 23.9709 29.4154 24.0863 29.1292 24.3171C28.846 24.5479 28.6352 24.8542 28.4967 25.2358C28.3613 25.6143 28.2936 26.0298 28.2936 26.4822C28.2936 26.9377 28.3613 27.3548 28.4967 27.7333C28.6352 28.1119 28.846 28.415 29.1292 28.6428C29.4154 28.8705 29.7755 28.9844 30.2094 28.9844ZM37.1145 30.157C36.6652 30.157 36.2589 30.0739 35.8958 29.9077C35.5326 29.7384 35.2449 29.4937 35.0325 29.1737C34.8232 28.8536 34.7186 28.4612 34.7186 27.9964C34.7186 27.5964 34.7955 27.267 34.9494 27.0085C35.1033 26.75 35.311 26.5453 35.5726 26.3945C35.8342 26.2437 36.1266 26.1299 36.4498 26.0529C36.7729 25.976 37.1022 25.9175 37.4377 25.8775C37.8624 25.8282 38.2071 25.7882 38.4718 25.7575C38.7364 25.7236 38.9288 25.6697 39.0488 25.5959C39.1689 25.522 39.2289 25.402 39.2289 25.2358V25.2035C39.2289 24.8003 39.115 24.4879 38.8873 24.2663C38.6626 24.0447 38.3271 23.9339 37.8809 23.9339C37.4161 23.9339 37.0499 24.037 36.7821 24.2433C36.5175 24.4464 36.3343 24.6726 36.2328 24.9219L34.9355 24.6264C35.0894 24.1955 35.3141 23.8478 35.6096 23.5831C35.9081 23.3153 36.2512 23.1214 36.639 23.0014C37.0268 22.8783 37.4346 22.8168 37.8624 22.8168C38.1455 22.8168 38.4456 22.8506 38.7626 22.9183C39.0827 22.983 39.3812 23.103 39.6582 23.2784C39.9383 23.4538 40.1676 23.7047 40.3461 24.0309C40.5246 24.354 40.6138 24.7741 40.6138 25.2912V30H39.2658V29.0305H39.2104C39.1212 29.209 38.9873 29.3845 38.8088 29.5568C38.6303 29.7292 38.401 29.8723 38.1209 29.9862C37.8408 30.1 37.5054 30.157 37.1145 30.157ZM37.4146 29.049C37.7962 29.049 38.1225 28.9736 38.3933 28.8228C38.6672 28.672 38.8749 28.475 39.0165 28.2319C39.1612 27.9857 39.2335 27.7225 39.2335 27.4425V26.5284C39.1842 26.5777 39.0888 26.6238 38.9473 26.6669C38.8088 26.7069 38.6503 26.7423 38.4718 26.7731C38.2933 26.8008 38.1194 26.8269 37.9501 26.8516C37.7808 26.8731 37.6393 26.8916 37.5254 26.907C37.2576 26.9408 37.013 26.9978 36.7914 27.0778C36.5729 27.1578 36.3974 27.2732 36.2651 27.424C36.1358 27.5717 36.0712 27.7687 36.0712 28.0149C36.0712 28.3565 36.1974 28.6151 36.4498 28.7905C36.7021 28.9628 37.0237 29.049 37.4146 29.049ZM45.1068 30.1385C44.5344 30.1385 44.0235 29.9923 43.5741 29.6999C43.1279 29.4045 42.777 28.9844 42.5216 28.4396C42.2692 27.8918 42.143 27.2347 42.143 26.4684C42.143 25.7021 42.2707 25.0465 42.5262 24.5018C42.7847 23.957 43.1386 23.54 43.588 23.2507C44.0373 22.9614 44.5467 22.8168 45.116 22.8168C45.5561 22.8168 45.9101 22.8906 46.1778 23.0384C46.4487 23.183 46.6579 23.3523 46.8057 23.5462C46.9565 23.7401 47.0734 23.9109 47.1565 24.0586H47.2396V20.5455H48.6199V30H47.2719V28.8967H47.1565C47.0734 29.0475 46.9534 29.2198 46.7964 29.4137C46.6425 29.6076 46.4302 29.7769 46.1594 29.9215C45.8885 30.0662 45.5377 30.1385 45.1068 30.1385ZM45.4115 28.9613C45.8085 28.9613 46.144 28.8567 46.4179 28.6474C46.6949 28.435 46.9041 28.1411 47.0457 27.7656C47.1904 27.3902 47.2627 26.9531 47.2627 26.4545C47.2627 25.9621 47.1919 25.5312 47.0503 25.1619C46.9088 24.7926 46.701 24.5049 46.4271 24.2987C46.1532 24.0924 45.8147 23.9893 45.4115 23.9893C44.996 23.9893 44.6498 24.0971 44.3728 24.3125C44.0958 24.5279 43.8865 24.8219 43.7449 25.1942C43.6064 25.5666 43.5372 25.9867 43.5372 26.4545C43.5372 26.9285 43.608 27.3548 43.7496 27.7333C43.8911 28.1119 44.1004 28.4119 44.3774 28.6335C44.6575 28.852 45.0022 28.9613 45.4115 28.9613ZM50.59 30V22.9091H51.915V24.0632H52.0027C52.1504 23.6723 52.392 23.3677 52.7275 23.1491C53.0629 22.9276 53.4645 22.8168 53.9324 22.8168C54.4063 22.8168 54.8033 22.9276 55.1234 23.1491C55.4466 23.3707 55.6851 23.6754 55.839 24.0632H55.9128C56.0821 23.6847 56.3514 23.383 56.7207 23.1584C57.09 22.9306 57.5301 22.8168 58.041 22.8168C58.6842 22.8168 59.209 23.0183 59.6152 23.4215C60.0246 23.8247 60.2292 24.4325 60.2292 25.245V30H58.8489V25.3743C58.8489 24.8942 58.7181 24.5464 58.4565 24.331C58.1949 24.1155 57.8825 24.0078 57.5194 24.0078C57.07 24.0078 56.7207 24.1463 56.4714 24.4233C56.2221 24.6972 56.0975 25.0496 56.0975 25.4805V30H54.7218V25.2866C54.7218 24.9019 54.6017 24.5926 54.3617 24.3587C54.1216 24.1248 53.8092 24.0078 53.4245 24.0078C53.1629 24.0078 52.9213 24.0771 52.6998 24.2156C52.4812 24.351 52.3043 24.5402 52.1689 24.7834C52.0365 25.0265 51.9703 25.3081 51.9703 25.6282V30H50.59ZM64.1428 30.157C63.6935 30.157 63.2873 30.0739 62.9241 29.9077C62.5609 29.7384 62.2732 29.4937 62.0608 29.1737C61.8515 28.8536 61.7469 28.4612 61.7469 27.9964C61.7469 27.5964 61.8238 27.267 61.9777 27.0085C62.1316 26.75 62.3393 26.5453 62.6009 26.3945C62.8625 26.2437 63.1549 26.1299 63.4781 26.0529C63.8012 25.976 64.1305 25.9175 64.466 25.8775C64.8907 25.8282 65.2354 25.7882 65.5001 25.7575C65.7648 25.7236 65.9571 25.6697 66.0771 25.5959C66.1972 25.522 66.2572 25.402 66.2572 25.2358V25.2035C66.2572 24.8003 66.1433 24.4879 65.9156 24.2663C65.6909 24.0447 65.3554 23.9339 64.9092 23.9339C64.4445 23.9339 64.0782 24.037 63.8105 24.2433C63.5458 24.4464 63.3627 24.6726 63.2611 24.9219L61.9639 24.6264C62.1177 24.1955 62.3424 23.8478 62.6379 23.5831C62.9364 23.3153 63.2796 23.1214 63.6673 23.0014C64.0551 22.8783 64.4629 22.8168 64.8907 22.8168C65.1739 22.8168 65.4739 22.8506 65.7909 22.9183C66.111 22.983 66.4095 23.103 66.6865 23.2784C66.9666 23.4538 67.1959 23.7047 67.3744 24.0309C67.5529 24.354 67.6421 24.7741 67.6421 25.2912V30H66.2941V29.0305H66.2387C66.1495 29.209 66.0156 29.3845 65.8371 29.5568C65.6586 29.7292 65.4293 29.8723 65.1492 29.9862C64.8692 30.1 64.5337 30.157 64.1428 30.157ZM64.4429 29.049C64.8245 29.049 65.1508 28.9736 65.4216 28.8228C65.6955 28.672 65.9033 28.475 66.0448 28.2319C66.1895 27.9857 66.2618 27.7225 66.2618 27.4425V26.5284C66.2126 26.5777 66.1172 26.6238 65.9756 26.6669C65.8371 26.7069 65.6786 26.7423 65.5001 26.7731C65.3216 26.8008 65.1477 26.8269 64.9784 26.8516C64.8092 26.8731 64.6676 26.8916 64.5537 26.907C64.286 26.9408 64.0413 26.9978 63.8197 27.0778C63.6012 27.1578 63.4258 27.2732 63.2934 27.424C63.1642 27.5717 63.0995 27.7687 63.0995 28.0149C63.0995 28.3565 63.2257 28.6151 63.4781 28.7905C63.7304 28.9628 64.0521 29.049 64.4429 29.049ZM69.4806 32.6591V22.9091H70.8287V24.0586H70.9441C71.0241 23.9109 71.1395 23.7401 71.2903 23.5462C71.4411 23.3523 71.6504 23.183 71.9181 23.0384C72.1859 22.8906 72.5398 22.8168 72.9799 22.8168C73.5524 22.8168 74.0633 22.9614 74.5126 23.2507C74.9619 23.54 75.3143 23.957 75.5698 24.5018C75.8283 25.0465 75.9576 25.7021 75.9576 26.4684C75.9576 27.2347 75.8298 27.8918 75.5744 28.4396C75.319 28.9844 74.9681 29.4045 74.5218 29.6999C74.0756 29.9923 73.5662 30.1385 72.9938 30.1385C72.5629 30.1385 72.2105 30.0662 71.9366 29.9215C71.6658 29.7769 71.4534 29.6076 71.2995 29.4137C71.1457 29.2198 71.0272 29.0475 70.9441 28.8967H70.861V32.6591H69.4806ZM70.8333 26.4545C70.8333 26.9531 70.9056 27.3902 71.0502 27.7656C71.1949 28.1411 71.4042 28.435 71.6781 28.6474C71.952 28.8567 72.2875 28.9613 72.6845 28.9613C73.0969 28.9613 73.4416 28.852 73.7186 28.6335C73.9956 28.4119 74.2048 28.1119 74.3464 27.7333C74.4911 27.3548 74.5634 26.9285 74.5634 26.4545C74.5634 25.9867 74.4926 25.5666 74.351 25.1942C74.2125 24.8219 74.0033 24.5279 73.7232 24.3125C73.4462 24.0971 73.1 23.9893 72.6845 23.9893C72.2844 23.9893 71.9458 24.0924 71.6689 24.2987C71.3949 24.5049 71.1872 24.7926 71.0456 25.1619C70.9041 25.5312 70.8333 25.9621 70.8333 26.4545ZM81.0553 30V20.5455H84.4253C85.1609 20.5455 85.7703 20.6793 86.2535 20.9471C86.7367 21.2148 87.0983 21.5811 87.3383 22.0458C87.5784 22.5075 87.6984 23.0276 87.6984 23.6062C87.6984 24.1879 87.5769 24.7111 87.3337 25.1758C87.0937 25.6374 86.7305 26.0037 86.2442 26.2745C85.761 26.5423 85.1532 26.6761 84.4207 26.6761H82.1032V25.4666H84.2915C84.7562 25.4666 85.1332 25.3866 85.4225 25.2266C85.7118 25.0634 85.9242 24.8419 86.0596 24.5618C86.195 24.2817 86.2627 23.9632 86.2627 23.6062C86.2627 23.2492 86.195 22.9322 86.0596 22.6552C85.9242 22.3782 85.7103 22.1612 85.4179 22.0043C85.1286 21.8473 84.747 21.7688 84.273 21.7688H82.4818V30H81.0553ZM89.2599 30V22.9091H90.5941V24.0355H90.668C90.7972 23.6539 91.025 23.3538 91.3512 23.1353C91.6805 22.9137 92.0529 22.8029 92.4684 22.8029C92.5546 22.8029 92.6561 22.806 92.7731 22.8121C92.8931 22.8183 92.987 22.826 93.0547 22.8352V24.1555C92.9993 24.1402 92.9008 24.1232 92.7592 24.1048C92.6177 24.0832 92.4761 24.0724 92.3345 24.0724C92.0083 24.0724 91.7174 24.1417 91.462 24.2802C91.2096 24.4156 91.0096 24.6049 90.8619 24.848C90.7141 25.0881 90.6403 25.362 90.6403 25.6697V30H89.2599ZM96.9822 30.1431C96.3174 30.1431 95.7372 29.9908 95.2417 29.6861C94.7462 29.3814 94.3615 28.9551 94.0876 28.4073C93.8137 27.8595 93.6768 27.2193 93.6768 26.4869C93.6768 25.7513 93.8137 25.1081 94.0876 24.5572C94.3615 24.0063 94.7462 23.5785 95.2417 23.2738C95.7372 22.9691 96.3174 22.8168 96.9822 22.8168C97.6469 22.8168 98.2271 22.9691 98.7226 23.2738C99.2181 23.5785 99.6028 24.0063 99.8767 24.5572C100.151 25.1081 100.288 25.7513 100.288 26.4869C100.288 27.2193 100.151 27.8595 99.8767 28.4073C99.6028 28.9551 99.2181 29.3814 98.7226 29.6861C98.2271 29.9908 97.6469 30.1431 96.9822 30.1431ZM96.9868 28.9844C97.4176 28.9844 97.7747 28.8705 98.0578 28.6428C98.3409 28.415 98.5502 28.1119 98.6856 27.7333C98.8241 27.3548 98.8934 26.9377 98.8934 26.4822C98.8934 26.0298 98.8241 25.6143 98.6856 25.2358C98.5502 24.8542 98.3409 24.5479 98.0578 24.3171C97.7747 24.0863 97.4176 23.9709 96.9868 23.9709C96.5528 23.9709 96.1927 24.0863 95.9065 24.3171C95.6234 24.5479 95.4126 24.8542 95.2741 25.2358C95.1386 25.6143 95.0709 26.0298 95.0709 26.4822C95.0709 26.9377 95.1386 27.3548 95.2741 27.7333C95.4126 28.1119 95.6234 28.415 95.9065 28.6428C96.1927 28.8705 96.5528 28.9844 96.9868 28.9844ZM101.828 22.9091H103.209V30.4616C103.209 30.9356 103.122 31.3357 102.95 31.6619C102.781 31.9882 102.528 32.2359 102.193 32.4052C101.861 32.5745 101.45 32.6591 100.96 32.6591C100.911 32.6591 100.865 32.6591 100.822 32.6591C100.776 32.6591 100.728 32.6576 100.679 32.6545V31.468C100.722 31.468 100.76 31.468 100.794 31.468C100.825 31.468 100.86 31.468 100.9 31.468C101.227 31.468 101.462 31.3803 101.607 31.2049C101.754 31.0326 101.828 30.7817 101.828 30.4524V22.9091ZM102.512 21.815C102.271 21.815 102.065 21.735 101.893 21.5749C101.724 21.4118 101.639 21.2179 101.639 20.9933C101.639 20.7655 101.724 20.5716 101.893 20.4116C102.065 20.2485 102.271 20.1669 102.512 20.1669C102.752 20.1669 102.956 20.2485 103.126 20.4116C103.298 20.5716 103.384 20.7655 103.384 20.9933C103.384 21.2179 103.298 21.4118 103.126 21.5749C102.956 21.735 102.752 21.815 102.512 21.815ZM108.122 30.1431C107.423 30.1431 106.821 29.9938 106.317 29.6953C105.815 29.3937 105.427 28.9705 105.153 28.4258C104.882 27.878 104.747 27.2363 104.747 26.5007C104.747 25.7744 104.882 25.1342 105.153 24.5803C105.427 24.0263 105.809 23.5939 106.298 23.283C106.791 22.9722 107.366 22.8168 108.025 22.8168C108.425 22.8168 108.813 22.8829 109.188 23.0153C109.564 23.1476 109.901 23.3554 110.199 23.6385C110.498 23.9216 110.733 24.2894 110.905 24.7418C111.078 25.1912 111.164 25.7375 111.164 26.3807V26.87H105.527V25.8359H109.811C109.811 25.4728 109.737 25.1512 109.59 24.8711C109.442 24.5879 109.234 24.3648 108.967 24.2017C108.702 24.0386 108.391 23.957 108.034 23.957C107.646 23.957 107.308 24.0524 107.018 24.2433C106.732 24.431 106.511 24.6772 106.354 24.9819C106.2 25.2835 106.123 25.6113 106.123 25.9652V26.7731C106.123 27.247 106.206 27.6502 106.372 27.9826C106.541 28.315 106.777 28.5689 107.078 28.7443C107.38 28.9167 107.732 29.0028 108.136 29.0028C108.397 29.0028 108.636 28.9659 108.851 28.892C109.067 28.8151 109.253 28.7012 109.41 28.5504C109.567 28.3996 109.687 28.2134 109.77 27.9918L111.076 28.2273C110.972 28.612 110.784 28.949 110.513 29.2383C110.245 29.5245 109.908 29.7476 109.502 29.9077C109.099 30.0646 108.639 30.1431 108.122 30.1431ZM115.682 30.1431C114.996 30.1431 114.405 29.9877 113.91 29.6768C113.417 29.3629 113.039 28.9305 112.774 28.3796C112.509 27.8287 112.377 27.1978 112.377 26.4869C112.377 25.7667 112.512 25.1312 112.783 24.5803C113.054 24.0263 113.436 23.5939 113.928 23.283C114.421 22.9722 115.001 22.8168 115.669 22.8168C116.207 22.8168 116.687 22.9168 117.109 23.1168C117.53 23.3138 117.871 23.5908 118.129 23.9478C118.391 24.3048 118.546 24.7218 118.595 25.1989H117.252C117.178 24.8665 117.009 24.5803 116.744 24.3402C116.483 24.1001 116.132 23.9801 115.692 23.9801C115.307 23.9801 114.97 24.0817 114.681 24.2848C114.394 24.4848 114.171 24.7711 114.011 25.1435C113.851 25.5128 113.771 25.9498 113.771 26.4545C113.771 26.9716 113.85 27.4179 114.007 27.7933C114.164 28.1688 114.385 28.4596 114.671 28.6658C114.961 28.872 115.301 28.9751 115.692 28.9751C115.953 28.9751 116.19 28.9274 116.403 28.832C116.618 28.7335 116.798 28.5935 116.943 28.4119C117.09 28.2304 117.193 28.0118 117.252 27.7564H118.595C118.546 28.215 118.397 28.6243 118.148 28.9844C117.898 29.3445 117.564 29.6276 117.146 29.8338C116.73 30.04 116.242 30.1431 115.682 30.1431ZM123.381 22.9091V24.017H119.508V22.9091H123.381ZM120.547 21.2102H121.927V27.918C121.927 28.1857 121.967 28.3873 122.047 28.5227C122.127 28.6551 122.23 28.7459 122.357 28.7951C122.486 28.8413 122.626 28.8643 122.777 28.8643C122.888 28.8643 122.984 28.8567 123.068 28.8413C123.151 28.8259 123.215 28.8136 123.261 28.8043L123.511 29.9446C123.431 29.9754 123.317 30.0062 123.169 30.0369C123.021 30.0708 122.837 30.0893 122.615 30.0923C122.252 30.0985 121.913 30.0339 121.6 29.8984C121.286 29.763 121.032 29.5537 120.838 29.2706C120.644 28.9875 120.547 28.632 120.547 28.2042V21.2102Z" fill="white"/>
<path opacity="0.5" d="M420.909 30V28.9659L424.109 25.6513C424.45 25.2912 424.732 24.9757 424.953 24.7049C425.178 24.431 425.346 24.1709 425.457 23.9247C425.567 23.6785 425.623 23.4169 425.623 23.1399C425.623 22.826 425.549 22.5552 425.401 22.3274C425.254 22.0966 425.052 21.9196 424.797 21.7965C424.541 21.6703 424.253 21.6072 423.933 21.6072C423.595 21.6072 423.299 21.6765 423.047 21.815C422.795 21.9535 422.601 22.1489 422.465 22.4013C422.33 22.6536 422.262 22.9491 422.262 23.2876H420.9C420.9 22.7121 421.033 22.2089 421.297 21.7781C421.562 21.3472 421.925 21.0133 422.387 20.7763C422.848 20.5362 423.373 20.4162 423.961 20.4162C424.555 20.4162 425.078 20.5347 425.531 20.7717C425.986 21.0056 426.342 21.3256 426.597 21.7319C426.852 22.1351 426.98 22.5906 426.98 23.0984C426.98 23.4492 426.914 23.7924 426.782 24.1278C426.652 24.4633 426.426 24.8372 426.103 25.2496C425.78 25.659 425.33 26.156 424.755 26.7408L422.876 28.7074V28.7766H427.132V30H420.909ZM432.174 30.157C431.444 30.1539 430.821 29.9615 430.304 29.5799C429.787 29.1983 429.391 28.6428 429.118 27.9134C428.844 27.1839 428.707 26.3053 428.707 25.2773C428.707 24.2525 428.844 23.3769 429.118 22.6506C429.395 21.9242 429.792 21.3703 430.309 20.9886C430.829 20.607 431.45 20.4162 432.174 20.4162C432.897 20.4162 433.517 20.6085 434.034 20.9933C434.551 21.3749 434.947 21.9289 435.221 22.6552C435.498 23.3784 435.636 24.2525 435.636 25.2773C435.636 26.3084 435.499 27.1886 435.225 27.918C434.951 28.6443 434.556 29.1998 434.039 29.5845C433.522 29.9661 432.9 30.157 432.174 30.157ZM432.174 28.9244C432.814 28.9244 433.314 28.612 433.674 27.9872C434.037 27.3625 434.219 26.4592 434.219 25.2773C434.219 24.4925 434.136 23.8293 433.969 23.2876C433.806 22.7429 433.571 22.3305 433.263 22.0504C432.958 21.7673 432.595 21.6257 432.174 21.6257C431.537 21.6257 431.036 21.9396 430.673 22.5675C430.31 23.1953 430.127 24.0986 430.124 25.2773C430.124 26.0652 430.205 26.7315 430.369 27.2763C430.535 27.8179 430.77 28.2288 431.075 28.5089C431.38 28.7859 431.746 28.9244 432.174 28.9244ZM437.274 30V28.9659L440.473 25.6513C440.815 25.2912 441.096 24.9757 441.318 24.7049C441.542 24.431 441.71 24.1709 441.821 23.9247C441.932 23.6785 441.987 23.4169 441.987 23.1399C441.987 22.826 441.913 22.5552 441.766 22.3274C441.618 22.0966 441.416 21.9196 441.161 21.7965C440.905 21.6703 440.618 21.6072 440.297 21.6072C439.959 21.6072 439.664 21.6765 439.411 21.815C439.159 21.9535 438.965 22.1489 438.829 22.4013C438.694 22.6536 438.626 22.9491 438.626 23.2876H437.264C437.264 22.7121 437.397 22.2089 437.661 21.7781C437.926 21.3472 438.289 21.0133 438.751 20.7763C439.213 20.5362 439.737 20.4162 440.325 20.4162C440.919 20.4162 441.442 20.5347 441.895 20.7717C442.35 21.0056 442.706 21.3256 442.961 21.7319C443.217 22.1351 443.344 22.5906 443.344 23.0984C443.344 23.4492 443.278 23.7924 443.146 24.1278C443.017 24.4633 442.79 24.8372 442.467 25.2496C442.144 25.659 441.695 26.156 441.119 26.7408L439.24 28.7074V28.7766H443.497V30H437.274ZM444.845 28.1534V26.9993L448.93 20.5455H449.84V22.2443H449.263L446.34 26.87V26.9439H451.94V28.1534H444.845ZM449.327 30V27.8026L449.337 27.2763V20.5455H450.689V30H449.327Z" fill="white"/>
<g opacity="0.2">
<rect x="26.5" y="131.5" width="462" height="106" rx="9.5" fill="black"/>
<rect x="26.5" y="131.5" width="462" height="106" rx="9.5" fill="url(#paint15_linear_222_528)" fill-opacity="0.33"/>
<rect x="26.5" y="131.5" width="462" height="106" rx="9.5" stroke="white"/>
</g>
<circle cx="458.5" cy="157.5" r="12.5" fill="url(#paint16_linear_222_528)"/>
<path opacity="0.5" d="M454.72 154.48V154.2H457.46V154.48L456.91 154.55C456.803 154.563 456.74 154.593 456.72 154.64C456.7 154.68 456.69 154.813 456.69 155.04V159.06C456.69 159.44 456.627 159.787 456.5 160.1C456.373 160.407 456.167 160.65 455.88 160.83C455.593 161.01 455.21 161.1 454.73 161.1C454.483 161.1 454.24 161.06 454 160.98C453.767 160.893 453.563 160.74 453.39 160.52C453.223 160.3 453.113 159.987 453.06 159.58L453.75 159.38C453.77 159.747 453.823 160.03 453.91 160.23C453.997 160.423 454.107 160.56 454.24 160.64C454.373 160.713 454.517 160.75 454.67 160.75C454.823 160.75 454.96 160.71 455.08 160.63C455.207 160.55 455.307 160.403 455.38 160.19C455.453 159.977 455.49 159.667 455.49 159.26V155.04C455.49 154.813 455.48 154.68 455.46 154.64C455.44 154.593 455.377 154.563 455.27 154.55L454.72 154.48ZM458.186 154.48V154.2H460.946C461.479 154.2 461.903 154.273 462.216 154.42C462.529 154.567 462.753 154.76 462.886 155C463.026 155.24 463.096 155.507 463.096 155.8V156.07C463.096 156.417 462.986 156.717 462.766 156.97C462.553 157.217 462.239 157.393 461.826 157.5C462.333 157.587 462.719 157.767 462.986 158.04C463.259 158.313 463.396 158.657 463.396 159.07V159.35C463.396 159.65 463.326 159.927 463.186 160.18C463.046 160.427 462.813 160.627 462.486 160.78C462.166 160.927 461.736 161 461.196 161H458.186V160.72L458.736 160.65C458.843 160.637 458.906 160.61 458.926 160.57C458.946 160.523 458.956 160.387 458.956 160.16V155.04C458.956 154.813 458.946 154.68 458.926 154.64C458.906 154.593 458.843 154.563 458.736 154.55L458.186 154.48ZM460.946 154.55H460.156V157.35H460.946C461.233 157.35 461.449 157.253 461.596 157.06C461.743 156.86 461.816 156.547 461.816 156.12V155.8C461.816 155.367 461.743 155.05 461.596 154.85C461.449 154.65 461.233 154.55 460.946 154.55ZM461.196 157.7H460.156V160.65H461.196C461.496 160.65 461.723 160.55 461.876 160.35C462.036 160.143 462.116 159.81 462.116 159.35V159.02C462.116 158.14 461.809 157.7 461.196 157.7Z" fill="white"/>
<rect opacity="0.1" x="70" y="159" width="200" height="3" fill="#D9D9D9"/>
<rect opacity="0.4" x="70" y="159" width="20" height="3" fill="white"/>
<path opacity="0.5" d="M46.8899 191L44.2678 181.545H45.7681L47.6101 188.867H47.6978L49.6136 181.545H51.1001L53.016 188.872H53.1037L54.9411 181.545H56.446L53.8192 191H52.3835L50.3938 183.918H50.32L48.3303 191H46.8899ZM57.6359 191V183.909H59.0162V191H57.6359ZM58.333 182.815C58.093 182.815 57.8867 182.735 57.7144 182.575C57.5451 182.412 57.4605 182.218 57.4605 181.993C57.4605 181.766 57.5451 181.572 57.7144 181.412C57.8867 181.248 58.093 181.167 58.333 181.167C58.5731 181.167 58.7777 181.248 58.947 181.412C59.1193 181.572 59.2055 181.766 59.2055 181.993C59.2055 182.218 59.1193 182.412 58.947 182.575C58.7777 182.735 58.5731 182.815 58.333 182.815ZM60.8732 191V183.909H62.2074V185.036H62.2812C62.4105 184.654 62.6383 184.354 62.9645 184.135C63.2938 183.914 63.6662 183.803 64.0817 183.803C64.1679 183.803 64.2694 183.806 64.3864 183.812C64.5064 183.818 64.6003 183.826 64.668 183.835V185.156C64.6126 185.14 64.5141 185.123 64.3725 185.105C64.2309 185.083 64.0894 185.072 63.9478 185.072C63.6216 185.072 63.3307 185.142 63.0753 185.28C62.8229 185.416 62.6229 185.605 62.4751 185.848C62.3274 186.088 62.2536 186.362 62.2536 186.67V191H60.8732ZM68.6647 191.143C67.9661 191.143 67.3644 190.994 66.8596 190.695C66.358 190.394 65.9702 189.971 65.6963 189.426C65.4255 188.878 65.29 188.236 65.29 187.501C65.29 186.774 65.4255 186.134 65.6963 185.58C65.9702 185.026 66.3518 184.594 66.8412 184.283C67.3336 183.972 67.9091 183.817 68.5677 183.817C68.9678 183.817 69.3556 183.883 69.7311 184.015C70.1066 184.148 70.4436 184.355 70.7421 184.638C71.0406 184.922 71.2761 185.289 71.4484 185.742C71.6208 186.191 71.7069 186.737 71.7069 187.381V187.87H66.0702V186.836H70.3543C70.3543 186.473 70.2805 186.151 70.1327 185.871C69.985 185.588 69.7773 185.365 69.5095 185.202C69.2448 185.039 68.934 184.957 68.577 184.957C68.1892 184.957 67.8506 185.052 67.5613 185.243C67.2751 185.431 67.0535 185.677 66.8966 185.982C66.7427 186.283 66.6657 186.611 66.6657 186.965V187.773C66.6657 188.247 66.7488 188.65 66.915 188.983C67.0843 189.315 67.3198 189.569 67.6214 189.744C67.923 189.917 68.2754 190.003 68.6785 190.003C68.9401 190.003 69.1787 189.966 69.3941 189.892C69.6095 189.815 69.7957 189.701 69.9527 189.55C70.1096 189.4 70.2297 189.213 70.3128 188.992L71.6192 189.227C71.5146 189.612 71.3269 189.949 71.056 190.238C70.7883 190.525 70.4513 190.748 70.045 190.908C69.6418 191.065 69.1817 191.143 68.6647 191.143ZM76.6131 183.909V185.017H72.606V183.909H76.6131ZM73.7047 191V183.087C73.7047 182.644 73.8017 182.276 73.9956 181.984C74.1895 181.689 74.4464 181.469 74.7665 181.324C75.0866 181.176 75.4344 181.102 75.8098 181.102C76.0868 181.102 76.3238 181.125 76.5208 181.172C76.7177 181.215 76.8639 181.255 76.9593 181.292L76.6362 182.409C76.5716 182.39 76.4885 182.369 76.3869 182.344C76.2853 182.316 76.1622 182.303 76.0176 182.303C75.6821 182.303 75.4421 182.386 75.2974 182.552C75.1558 182.718 75.085 182.958 75.085 183.272V191H73.7047ZM78.0373 191V183.909H79.3714V185.036H79.4453C79.5746 184.654 79.8023 184.354 80.1286 184.135C80.4579 183.914 80.8303 183.803 81.2457 183.803C81.3319 183.803 81.4335 183.806 81.5504 183.812C81.6705 183.818 81.7643 183.826 81.832 183.835V185.156C81.7766 185.14 81.6781 185.123 81.5366 185.105C81.395 185.083 81.2534 185.072 81.1119 185.072C80.7856 185.072 80.4948 185.142 80.2393 185.28C79.987 185.416 79.7869 185.605 79.6392 185.848C79.4915 186.088 79.4176 186.362 79.4176 186.67V191H78.0373ZM85.0266 191.157C84.5773 191.157 84.171 191.074 83.8079 190.908C83.4447 190.738 83.157 190.494 82.9446 190.174C82.7353 189.854 82.6307 189.461 82.6307 188.996C82.6307 188.596 82.7076 188.267 82.8615 188.009C83.0154 187.75 83.2231 187.545 83.4847 187.395C83.7463 187.244 84.0387 187.13 84.3619 187.053C84.685 186.976 85.0143 186.917 85.3498 186.877C85.7745 186.828 86.1192 186.788 86.3839 186.757C86.6486 186.724 86.8409 186.67 86.9609 186.596C87.081 186.522 87.141 186.402 87.141 186.236V186.203C87.141 185.8 87.0271 185.488 86.7994 185.266C86.5747 185.045 86.2392 184.934 85.793 184.934C85.3282 184.934 84.962 185.037 84.6942 185.243C84.4296 185.446 84.2464 185.673 84.1449 185.922L82.8477 185.626C83.0015 185.196 83.2262 184.848 83.5217 184.583C83.8202 184.315 84.1634 184.121 84.5511 184.001C84.9389 183.878 85.3467 183.817 85.7745 183.817C86.0576 183.817 86.3577 183.851 86.6747 183.918C86.9948 183.983 87.2933 184.103 87.5703 184.278C87.8504 184.454 88.0797 184.705 88.2582 185.031C88.4367 185.354 88.5259 185.774 88.5259 186.291V191H87.1779V190.031H87.1225C87.0333 190.209 86.8994 190.384 86.7209 190.557C86.5424 190.729 86.3131 190.872 86.033 190.986C85.753 191.1 85.4175 191.157 85.0266 191.157ZM85.3267 190.049C85.7083 190.049 86.0346 189.974 86.3054 189.823C86.5793 189.672 86.7871 189.475 86.9286 189.232C87.0733 188.986 87.1456 188.723 87.1456 188.442V187.528C87.0964 187.578 87.0009 187.624 86.8594 187.667C86.7209 187.707 86.5624 187.742 86.3839 187.773C86.2054 187.801 86.0315 187.827 85.8622 187.852C85.6929 187.873 85.5514 187.892 85.4375 187.907C85.1697 187.941 84.9251 187.998 84.7035 188.078C84.485 188.158 84.3095 188.273 84.1772 188.424C84.0479 188.572 83.9833 188.769 83.9833 189.015C83.9833 189.357 84.1095 189.615 84.3619 189.79C84.6142 189.963 84.9358 190.049 85.3267 190.049ZM90.3644 191V183.909H91.6894V185.063H91.7771C91.9248 184.672 92.1664 184.368 92.5019 184.149C92.8373 183.928 93.239 183.817 93.7068 183.817C94.1807 183.817 94.5777 183.928 94.8978 184.149C95.221 184.371 95.4595 184.675 95.6134 185.063H95.6872C95.8565 184.685 96.1258 184.383 96.4951 184.158C96.8644 183.931 97.3045 183.817 97.8154 183.817C98.4587 183.817 98.9834 184.018 99.3896 184.422C99.799 184.825 100.004 185.433 100.004 186.245V191H98.6233V186.374C98.6233 185.894 98.4925 185.546 98.2309 185.331C97.9693 185.116 97.6569 185.008 97.2938 185.008C96.8444 185.008 96.4951 185.146 96.2458 185.423C95.9965 185.697 95.8719 186.05 95.8719 186.48V191H94.4962V186.287C94.4962 185.902 94.3762 185.593 94.1361 185.359C93.896 185.125 93.5837 185.008 93.199 185.008C92.9374 185.008 92.6958 185.077 92.4742 185.216C92.2557 185.351 92.0787 185.54 91.9433 185.783C91.8109 186.027 91.7448 186.308 91.7448 186.628V191H90.3644ZM101.854 191V183.909H103.234V191H101.854ZM102.551 182.815C102.311 182.815 102.105 182.735 101.932 182.575C101.763 182.412 101.678 182.218 101.678 181.993C101.678 181.766 101.763 181.572 101.932 181.412C102.105 181.248 102.311 181.167 102.551 181.167C102.791 181.167 102.996 181.248 103.165 181.412C103.337 181.572 103.423 181.766 103.423 181.993C103.423 182.218 103.337 182.412 103.165 182.575C102.996 182.735 102.791 182.815 102.551 182.815ZM106.471 186.79V191H105.091V183.909H106.416V185.063H106.504C106.667 184.688 106.922 184.386 107.27 184.158C107.621 183.931 108.062 183.817 108.595 183.817C109.078 183.817 109.501 183.918 109.864 184.121C110.228 184.321 110.509 184.62 110.709 185.017C110.909 185.414 111.009 185.905 111.009 186.49V191H109.629V186.656C109.629 186.142 109.495 185.74 109.227 185.451C108.96 185.159 108.592 185.012 108.124 185.012C107.804 185.012 107.519 185.082 107.27 185.22C107.024 185.359 106.828 185.562 106.684 185.83C106.542 186.094 106.471 186.414 106.471 186.79ZM115.834 193.807C115.27 193.807 114.786 193.733 114.379 193.585C113.976 193.438 113.647 193.242 113.391 192.999C113.136 192.756 112.945 192.49 112.819 192.2L114.005 191.711C114.089 191.846 114.199 191.989 114.338 192.14C114.479 192.294 114.67 192.425 114.91 192.533C115.153 192.64 115.466 192.694 115.847 192.694C116.371 192.694 116.803 192.567 117.145 192.311C117.486 192.059 117.657 191.656 117.657 191.102V189.707H117.569C117.486 189.858 117.366 190.026 117.209 190.211C117.055 190.395 116.843 190.555 116.572 190.691C116.301 190.826 115.949 190.894 115.515 190.894C114.955 190.894 114.45 190.763 114.001 190.501C113.555 190.237 113.201 189.847 112.939 189.333C112.68 188.816 112.551 188.181 112.551 187.427C112.551 186.673 112.679 186.027 112.934 185.488C113.193 184.949 113.547 184.537 113.996 184.251C114.446 183.961 114.955 183.817 115.524 183.817C115.964 183.817 116.32 183.891 116.591 184.038C116.861 184.183 117.072 184.352 117.223 184.546C117.377 184.74 117.495 184.911 117.579 185.059H117.68V183.909H119.033V191.157C119.033 191.766 118.891 192.266 118.608 192.657C118.325 193.048 117.942 193.337 117.459 193.525C116.978 193.713 116.437 193.807 115.834 193.807ZM115.82 189.749C116.217 189.749 116.552 189.657 116.826 189.472C117.103 189.284 117.312 189.016 117.454 188.669C117.599 188.318 117.671 187.898 117.671 187.408C117.671 186.931 117.6 186.511 117.459 186.148C117.317 185.785 117.109 185.502 116.835 185.299C116.561 185.092 116.223 184.989 115.82 184.989C115.404 184.989 115.058 185.097 114.781 185.312C114.504 185.525 114.295 185.814 114.153 186.18C114.015 186.547 113.945 186.956 113.945 187.408C113.945 187.873 114.016 188.281 114.158 188.632C114.299 188.983 114.509 189.257 114.786 189.453C115.066 189.65 115.41 189.749 115.82 189.749Z" fill="white"/>
<path opacity="0.5" d="M47.4588 156.727V164H46.358V157.828H46.3153L44.5753 158.964V157.913L46.3899 156.727H47.4588ZM51.9581 164.121C51.397 164.118 50.9176 163.97 50.5199 163.677C50.1222 163.383 49.8179 162.956 49.6072 162.395C49.3965 161.834 49.2912 161.158 49.2912 160.367C49.2912 159.579 49.3965 158.905 49.6072 158.347C49.8203 157.788 50.1257 157.362 50.5234 157.068C50.9235 156.775 51.4018 156.628 51.9581 156.628C52.5144 156.628 52.9915 156.776 53.3892 157.072C53.7869 157.365 54.0911 157.791 54.3018 158.35C54.5149 158.906 54.6214 159.579 54.6214 160.367C54.6214 161.16 54.5161 161.837 54.3054 162.398C54.0947 162.957 53.7905 163.384 53.3928 163.68C52.995 163.974 52.5168 164.121 51.9581 164.121ZM51.9581 163.173C52.4505 163.173 52.8352 162.932 53.1122 162.452C53.3916 161.971 53.5312 161.276 53.5312 160.367C53.5312 159.763 53.4673 159.253 53.3395 158.837C53.214 158.418 53.0329 158.1 52.7962 157.885C52.5618 157.667 52.2824 157.558 51.9581 157.558C51.468 157.558 51.0833 157.8 50.804 158.283C50.5246 158.766 50.3838 159.46 50.3814 160.367C50.3814 160.973 50.4441 161.486 50.5696 161.905C50.6974 162.321 50.8786 162.638 51.1129 162.853C51.3473 163.066 51.629 163.173 51.9581 163.173ZM59.6774 162.636V162.253C59.6774 161.978 59.7342 161.727 59.8478 161.5C59.9638 161.27 60.1319 161.087 60.3521 160.95C60.5746 160.81 60.8433 160.74 61.1582 160.74C61.4802 160.74 61.7501 160.809 61.9679 160.946C62.1857 161.083 62.3502 161.267 62.4615 161.496C62.5751 161.726 62.6319 161.978 62.6319 162.253V162.636C62.6319 162.911 62.5751 163.163 62.4615 163.393C62.3478 163.62 62.1809 163.804 61.9608 163.943C61.743 164.08 61.4754 164.149 61.1582 164.149C60.8386 164.149 60.5687 164.08 60.3485 163.943C60.1284 163.804 59.9615 163.62 59.8478 163.393C59.7342 163.163 59.6774 162.911 59.6774 162.636ZM60.5048 162.253V162.636C60.5048 162.84 60.5533 163.025 60.6504 163.19C60.7475 163.356 60.9167 163.439 61.1582 163.439C61.3973 163.439 61.5642 163.356 61.6589 163.19C61.7536 163.025 61.801 162.84 61.801 162.636V162.253C61.801 162.049 61.7548 161.865 61.6625 161.699C61.5725 161.533 61.4044 161.45 61.1582 161.45C60.9215 161.45 60.7534 161.533 60.6539 161.699C60.5545 161.865 60.5048 162.049 60.5048 162.253ZM56.0197 158.474V158.091C56.0197 157.816 56.0765 157.564 56.1902 157.335C56.3062 157.105 56.4743 156.921 56.6944 156.784C56.917 156.647 57.1857 156.578 57.5005 156.578C57.8225 156.578 58.0924 156.647 58.3102 156.784C58.528 156.921 58.6925 157.105 58.8038 157.335C58.9151 157.564 58.9707 157.816 58.9707 158.091V158.474C58.9707 158.749 58.9139 159.001 58.8002 159.231C58.689 159.458 58.5233 159.642 58.3031 159.781C58.0853 159.919 57.8178 159.987 57.5005 159.987C57.1786 159.987 56.9075 159.919 56.6873 159.781C56.4695 159.642 56.3038 159.458 56.1902 159.231C56.0765 159.001 56.0197 158.749 56.0197 158.474ZM56.8507 158.091V158.474C56.8507 158.678 56.898 158.863 56.9927 159.028C57.0898 159.194 57.2591 159.277 57.5005 159.277C57.7373 159.277 57.903 159.194 57.9977 159.028C58.0948 158.863 58.1433 158.678 58.1433 158.474V158.091C58.1433 157.887 58.0971 157.703 58.0048 157.537C57.9125 157.371 57.7444 157.288 57.5005 157.288C57.2638 157.288 57.0957 157.371 56.9963 157.537C56.8992 157.703 56.8507 157.887 56.8507 158.091ZM56.3571 164L61.3571 156.727H62.2058L57.2058 164H56.3571Z" fill="white"/>
<rect opacity="0.5" x="811.5" y="18.5" width="41" height="23" rx="4.5" fill="url(#paint17_linear_222_528)" stroke="url(#paint18_angular_222_528)"/>
<path opacity="0.75" d="M840.599 26L844.197 29.5985L840.599 33.197" stroke="url(#paint19_linear_222_528)"/>
<path opacity="0.75" d="M823.599 33.1973L820 29.5987L823.599 26.0002" stroke="url(#paint20_linear_222_528)"/>
<line opacity="0.1" x1="832.5" y1="23" x2="832.5" y2="38" stroke="#7A7A7A"/>
<defs>
<linearGradient id="paint0_linear_222_528" x1="74" y1="238" x2="74" y2="455.424" gradientUnits="userSpaceOnUse">
<stop stop-color="white" stop-opacity="0.1"/>
<stop offset="0.535" stop-color="white"/>
<stop offset="0.98" stop-color="white" stop-opacity="0.1"/>
<stop offset="1" stop-color="white" stop-opacity="0"/>
</linearGradient>
<linearGradient id="paint1_linear_222_528" x1="74" y1="96" x2="74" y2="132.237" gradientUnits="userSpaceOnUse">
<stop stop-color="white" stop-opacity="0.1"/>
<stop offset="0.535" stop-color="white"/>
<stop offset="0.98" stop-color="white" stop-opacity="0.1"/>
<stop offset="1" stop-color="white" stop-opacity="0"/>
</linearGradient>
<linearGradient id="paint2_linear_222_528" x1="190" y1="238" x2="190" y2="455.424" gradientUnits="userSpaceOnUse">
<stop stop-color="white" stop-opacity="0.1"/>
<stop offset="0.535" stop-color="white"/>
<stop offset="0.98" stop-color="white" stop-opacity="0.1"/>
<stop offset="1" stop-color="white" stop-opacity="0"/>
</linearGradient>
<linearGradient id="paint3_linear_222_528" x1="190" y1="96" x2="190" y2="132.237" gradientUnits="userSpaceOnUse">
<stop stop-color="white" stop-opacity="0.1"/>
<stop offset="0.535" stop-color="white"/>
<stop offset="0.98" stop-color="white" stop-opacity="0.1"/>
<stop offset="1" stop-color="white" stop-opacity="0"/>
</linearGradient>
<linearGradient id="paint4_linear_222_528" x1="307" y1="238" x2="307" y2="455.424" gradientUnits="userSpaceOnUse">
<stop stop-color="white" stop-opacity="0.1"/>
<stop offset="0.535" stop-color="white"/>
<stop offset="0.98" stop-color="white" stop-opacity="0.1"/>
<stop offset="1" stop-color="white" stop-opacity="0"/>
</linearGradient>
<linearGradient id="paint5_linear_222_528" x1="307" y1="96" x2="307" y2="132.237" gradientUnits="userSpaceOnUse">
<stop stop-color="white" stop-opacity="0.1"/>
<stop offset="0.535" stop-color="white"/>
<stop offset="0.98" stop-color="white" stop-opacity="0.1"/>
<stop offset="1" stop-color="white" stop-opacity="0"/>
</linearGradient>
<linearGradient id="paint6_linear_222_528" x1="424" y1="238" x2="424" y2="455.424" gradientUnits="userSpaceOnUse">
<stop stop-color="white" stop-opacity="0.1"/>
<stop offset="0.535" stop-color="white"/>
<stop offset="0.98" stop-color="white" stop-opacity="0.1"/>
<stop offset="1" stop-color="white" stop-opacity="0"/>
</linearGradient>
<linearGradient id="paint7_linear_222_528" x1="424" y1="96" x2="424" y2="132.237" gradientUnits="userSpaceOnUse">
<stop stop-color="white" stop-opacity="0.1"/>
<stop offset="0.535" stop-color="white"/>
<stop offset="0.98" stop-color="white" stop-opacity="0.1"/>
<stop offset="1" stop-color="white" stop-opacity="0"/>
</linearGradient>
<linearGradient id="paint8_linear_222_528" x1="541" y1="131" x2="541" y2="459.207" gradientUnits="userSpaceOnUse">
<stop stop-color="white" stop-opacity="0.1"/>
<stop offset="0.535" stop-color="white"/>
<stop offset="0.98" stop-color="white" stop-opacity="0.1"/>
<stop offset="1" stop-color="white" stop-opacity="0"/>
</linearGradient>
<linearGradient id="paint9_linear_222_528" x1="541" y1="96" x2="541" y2="132.237" gradientUnits="userSpaceOnUse">
<stop stop-color="white" stop-opacity="0.1"/>
<stop offset="0.535" stop-color="white"/>
<stop offset="0.98" stop-color="white" stop-opacity="0.1"/>
<stop offset="1" stop-color="white" stop-opacity="0"/>
</linearGradient>
<linearGradient id="paint10_linear_222_528" x1="658" y1="131" x2="658" y2="459.207" gradientUnits="userSpaceOnUse">
<stop stop-color="white" stop-opacity="0.1"/>
<stop offset="0.535" stop-color="white"/>
<stop offset="0.98" stop-color="white" stop-opacity="0.1"/>
<stop offset="1" stop-color="white" stop-opacity="0"/>
</linearGradient>
<linearGradient id="paint11_linear_222_528" x1="658" y1="96" x2="658" y2="132.237" gradientUnits="userSpaceOnUse">
<stop stop-color="white" stop-opacity="0.1"/>
<stop offset="0.535" stop-color="white"/>
<stop offset="0.98" stop-color="white" stop-opacity="0.1"/>
<stop offset="1" stop-color="white" stop-opacity="0"/>
</linearGradient>
<linearGradient id="paint12_linear_222_528" x1="775" y1="131" x2="775" y2="459.207" gradientUnits="userSpaceOnUse">
<stop stop-color="white" stop-opacity="0.1"/>
<stop offset="0.535" stop-color="white"/>
<stop offset="0.98" stop-color="white" stop-opacity="0.1"/>
<stop offset="1" stop-color="white" stop-opacity="0"/>
</linearGradient>
<linearGradient id="paint13_linear_222_528" x1="775" y1="96" x2="775" y2="132.237" gradientUnits="userSpaceOnUse">
<stop stop-color="white" stop-opacity="0.1"/>
<stop offset="0.535" stop-color="white"/>
<stop offset="0.98" stop-color="white" stop-opacity="0.1"/>
<stop offset="1" stop-color="white" stop-opacity="0"/>
</linearGradient>
<linearGradient id="paint14_linear_222_528" x1="15" y1="55" x2="882.626" y2="54.9997" gradientUnits="userSpaceOnUse">
<stop stop-color="white" stop-opacity="0.1"/>
<stop offset="0.535" stop-color="white"/>
<stop offset="0.98" stop-color="white" stop-opacity="0.1"/>
<stop offset="1" stop-color="white" stop-opacity="0"/>
</linearGradient>
<linearGradient id="paint15_linear_222_528" x1="257.5" y1="131" x2="257.5" y2="238" gradientUnits="userSpaceOnUse">
<stop stop-color="white"/>
<stop offset="1" stop-color="white" stop-opacity="0.5"/>
</linearGradient>
<linearGradient id="paint16_linear_222_528" x1="458.5" y1="145" x2="458.5" y2="170" gradientUnits="userSpaceOnUse">
<stop stop-color="white" stop-opacity="0.3"/>
<stop offset="1" stop-color="#868686" stop-opacity="0.27"/>
</linearGradient>
<linearGradient id="paint17_linear_222_528" x1="832" y1="18" x2="832" y2="42" gradientUnits="userSpaceOnUse">
<stop stop-color="white" stop-opacity="0.05"/>
<stop offset="1" stop-color="white" stop-opacity="0.02"/>
</linearGradient>
<radialGradient id="paint18_angular_222_528" cx="0" cy="0" r="1" gradientUnits="userSpaceOnUse" gradientTransform="translate(832 30) rotate(90) scale(12 21)">
<stop offset="0.383231" stop-color="white" stop-opacity="0"/>
<stop offset="0.608975" stop-color="white" stop-opacity="0.1"/>
<stop offset="1" stop-color="white" stop-opacity="0.06"/>
</radialGradient>
<linearGradient id="paint19_linear_222_528" x1="842.398" y1="27.7993" x2="838.799" y2="31.3978" gradientUnits="userSpaceOnUse">
<stop stop-color="#474747"/>
<stop offset="1" stop-color="#474747" stop-opacity="0"/>
</linearGradient>
<linearGradient id="paint20_linear_222_528" x1="821.799" y1="31.398" x2="825.398" y2="27.7995" gradientUnits="userSpaceOnUse">
<stop stop-color="#474747"/>
<stop offset="1" stop-color="#474747" stop-opacity="0"/>
</linearGradient>
</defs>
</svg>
