<svg width="838" height="328" viewBox="0 0 838 328" fill="none" xmlns="http://www.w3.org/2000/svg">
<g opacity="0.25">
<line opacity="0.25" x1="59.5" y1="221.5" x2="59.5" y2="430.5" stroke="url(#paint0_linear_298_2)" stroke-linecap="round" stroke-dasharray="0.1 5"/>
<line opacity="0.25" x1="59.5" y1="79.5" x2="59.5" y2="113.5" stroke="url(#paint1_linear_298_2)" stroke-linecap="round" stroke-dasharray="0.1 5"/>
</g>
<g opacity="0.25">
<line opacity="0.25" x1="175.5" y1="221.5" x2="175.5" y2="430.5" stroke="url(#paint2_linear_298_2)" stroke-linecap="round" stroke-dasharray="0.1 5"/>
<line opacity="0.25" x1="175.5" y1="79.5" x2="175.5" y2="113.5" stroke="url(#paint3_linear_298_2)" stroke-linecap="round" stroke-dasharray="0.1 5"/>
</g>
<g opacity="0.25">
<line opacity="0.25" x1="292.5" y1="221.5" x2="292.5" y2="430.5" stroke="url(#paint4_linear_298_2)" stroke-linecap="round" stroke-dasharray="0.1 5"/>
<line opacity="0.25" x1="292.5" y1="79.5" x2="292.5" y2="113.5" stroke="url(#paint5_linear_298_2)" stroke-linecap="round" stroke-dasharray="0.1 5"/>
</g>
<g opacity="0.25">
<line opacity="0.25" x1="409.5" y1="221.5" x2="409.5" y2="430.5" stroke="url(#paint6_linear_298_2)" stroke-linecap="round" stroke-dasharray="0.1 5"/>
<line opacity="0.25" x1="409.5" y1="79.5" x2="409.5" y2="113.5" stroke="url(#paint7_linear_298_2)" stroke-linecap="round" stroke-dasharray="0.1 5"/>
</g>
<g opacity="0.25">
<line opacity="0.25" x1="526.5" y1="114.5" x2="526.5" y2="430.5" stroke="url(#paint8_linear_298_2)" stroke-linecap="round" stroke-dasharray="0.1 5"/>
<line opacity="0.25" x1="526.5" y1="79.5" x2="526.5" y2="113.5" stroke="url(#paint9_linear_298_2)" stroke-linecap="round" stroke-dasharray="0.1 5"/>
</g>
<g opacity="0.25">
<line opacity="0.25" x1="643.5" y1="114.5" x2="643.5" y2="430.5" stroke="url(#paint10_linear_298_2)" stroke-linecap="round" stroke-dasharray="0.1 5"/>
<line opacity="0.25" x1="643.5" y1="79.5" x2="643.5" y2="113.5" stroke="url(#paint11_linear_298_2)" stroke-linecap="round" stroke-dasharray="0.1 5"/>
</g>
<g opacity="0.25">
<line opacity="0.25" x1="760.5" y1="114.5" x2="760.5" y2="430.5" stroke="url(#paint12_linear_298_2)" stroke-linecap="round" stroke-dasharray="0.1 5"/>
<line opacity="0.25" x1="760.5" y1="79.5" x2="760.5" y2="113.5" stroke="url(#paint13_linear_298_2)" stroke-linecap="round" stroke-dasharray="0.1 5"/>
</g>
<path opacity="0.5" d="M52.8064 63.7273H53.6871V68.9261C53.6871 69.3902 53.6018 69.7843 53.4314 70.1087C53.2609 70.433 53.0206 70.6792 52.7105 70.8473C52.4004 71.0154 52.0346 71.0994 51.6132 71.0994C51.2155 71.0994 50.8615 71.0272 50.5514 70.8828C50.2413 70.736 49.9974 70.5277 49.8199 70.2578C49.6423 69.9879 49.5535 69.6671 49.5535 69.2955H50.42C50.42 69.5014 50.4709 69.6813 50.5727 69.8352C50.6769 69.9867 50.8189 70.1051 50.9988 70.1903C51.1788 70.2756 51.3836 70.3182 51.6132 70.3182C51.8665 70.3182 52.0819 70.2649 52.2595 70.1584C52.4371 70.0518 52.572 69.8956 52.6643 69.6896C52.759 69.4813 52.8064 69.2268 52.8064 68.9261V63.7273ZM55.7503 71H54.827L57.4974 63.7273H58.4065L61.077 71H60.1537L57.9804 64.8778H57.9236L55.7503 71ZM56.0912 68.1591H59.8128V68.9403H56.0912V68.1591ZM67.9768 63.7273V71H67.1246L63.1615 65.2898H63.0905V71H62.2098V63.7273H63.0621L67.0393 69.4517H67.1104V63.7273H67.9768Z" fill="#96BAC5"/>
<path opacity="0.5" d="M166.373 71V63.7273H170.733V64.5085H167.253V66.9659H170.407V67.7472H167.253V71H166.373ZM172.242 71V63.7273H176.631V64.5085H173.122V66.9659H176.404V67.7472H173.122V70.2188H176.688V71H172.242ZM178.218 71V63.7273H180.761C181.268 63.7273 181.685 63.8149 182.014 63.9901C182.344 64.1629 182.589 64.3961 182.75 64.6896C182.911 64.9808 182.991 65.304 182.991 65.6591C182.991 65.9716 182.935 66.2296 182.824 66.4332C182.715 66.6368 182.571 66.7978 182.391 66.9162C182.213 67.0346 182.02 67.1222 181.812 67.179V67.25C182.035 67.2642 182.258 67.3423 182.483 67.4844C182.708 67.6264 182.896 67.83 183.048 68.0952C183.199 68.3603 183.275 68.6847 183.275 69.0682C183.275 69.4328 183.192 69.7607 183.027 70.0518C182.861 70.343 182.599 70.5739 182.242 70.7443C181.884 70.9148 181.419 71 180.846 71H178.218ZM179.099 70.2188H180.846C181.421 70.2188 181.83 70.1075 182.071 69.8849C182.315 69.66 182.437 69.3878 182.437 69.0682C182.437 68.822 182.374 68.5947 182.249 68.3864C182.123 68.1757 181.945 68.0076 181.713 67.8821C181.481 67.7543 181.206 67.6903 180.889 67.6903H179.099V70.2188ZM179.099 66.9233H180.733C180.998 66.9233 181.237 66.8712 181.45 66.767C181.665 66.6629 181.836 66.5161 181.961 66.3267C182.089 66.1373 182.153 65.9148 182.153 65.6591C182.153 65.3395 182.042 65.0684 181.819 64.8459C181.597 64.621 181.244 64.5085 180.761 64.5085H179.099V66.9233Z" fill="#96BAC5"/>
<path opacity="0.5" d="M281.689 63.7273H282.74L285.211 69.7642H285.296L287.768 63.7273H288.819V71H287.995V65.4744H287.924L285.652 71H284.856L282.583 65.4744H282.512V71H281.689V63.7273ZM290.883 71H289.96L292.63 63.7273H293.54L296.21 71H295.287L293.113 64.8778H293.057L290.883 71ZM291.224 68.1591H294.946V68.9403H291.224V68.1591ZM297.343 71V63.7273H299.8C300.368 63.7273 300.835 63.8243 301.199 64.0185C301.564 64.2102 301.834 64.4742 302.009 64.8104C302.184 65.1465 302.272 65.5289 302.272 65.9574C302.272 66.3859 302.184 66.7659 302.009 67.0973C301.834 67.4287 301.565 67.6892 301.203 67.8786C300.841 68.0656 300.378 68.1591 299.814 68.1591H297.826V67.3636H299.786C300.174 67.3636 300.487 67.3068 300.724 67.1932C300.963 67.0795 301.135 66.9186 301.242 66.7102C301.351 66.4995 301.405 66.2486 301.405 65.9574C301.405 65.6662 301.351 65.4117 301.242 65.1939C301.133 64.9761 300.959 64.808 300.72 64.6896C300.481 64.5689 300.165 64.5085 299.772 64.5085H298.224V71H297.343ZM300.766 67.733L302.556 71H301.533L299.772 67.733H300.766Z" fill="#96BAC5"/>
<path opacity="0.5" d="M400.928 71H400.005L402.675 63.7273H403.584L406.255 71H405.331L403.158 64.8778H403.101L400.928 71ZM401.269 68.1591H404.991V68.9403H401.269V68.1591ZM407.388 71V63.7273H409.845C410.415 63.7273 410.882 63.8303 411.244 64.0362C411.609 64.2398 411.879 64.5156 412.054 64.8636C412.229 65.2116 412.316 65.5999 412.316 66.0284C412.316 66.4569 412.229 66.8464 412.054 67.1967C411.881 67.5471 411.613 67.8265 411.251 68.0348C410.889 68.2408 410.425 68.3438 409.859 68.3438H408.098V67.5625H409.831C410.221 67.5625 410.535 67.495 410.772 67.3601C411.008 67.2251 411.18 67.0429 411.287 66.8132C411.396 66.5812 411.45 66.3196 411.45 66.0284C411.45 65.7372 411.396 65.4768 411.287 65.2472C411.18 65.0175 411.007 64.8376 410.768 64.7074C410.529 64.5748 410.212 64.5085 409.816 64.5085H408.268V71H407.388ZM413.735 71V63.7273H416.193C416.761 63.7273 417.227 63.8243 417.592 64.0185C417.956 64.2102 418.226 64.4742 418.401 64.8104C418.577 65.1465 418.664 65.5289 418.664 65.9574C418.664 66.3859 418.577 66.7659 418.401 67.0973C418.226 67.4287 417.957 67.6892 417.595 67.8786C417.233 68.0656 416.77 68.1591 416.207 68.1591H414.218V67.3636H416.178C416.567 67.3636 416.879 67.3068 417.116 67.1932C417.355 67.0795 417.528 66.9186 417.634 66.7102C417.743 66.4995 417.798 66.2486 417.798 65.9574C417.798 65.6662 417.743 65.4117 417.634 65.1939C417.525 64.9761 417.351 64.808 417.112 64.6896C416.873 64.5689 416.557 64.5085 416.164 64.5085H414.616V71H413.735ZM417.158 67.733L418.948 71H417.926L416.164 67.733H417.158Z" fill="#96BAC5"/>
<path opacity="0.5" d="M516.766 63.7273H517.817L520.289 69.7642H520.374L522.846 63.7273H523.897V71H523.073V65.4744H523.002L520.729 71H519.934L517.661 65.4744H517.59V71H516.766V63.7273ZM525.961 71H525.038L527.708 63.7273H528.617L531.288 71H530.364L528.191 64.8778H528.134L525.961 71ZM526.302 68.1591H530.023V68.9403H526.302V68.1591ZM531.053 63.7273H532.062L534.079 67.1222H534.164L536.181 63.7273H537.19L534.562 68.0028V71H533.681V68.0028L531.053 63.7273Z" fill="#96BAC5"/>
<path opacity="0.5" d="M637.812 63.7273H638.693V68.9261C638.693 69.3902 638.608 69.7843 638.437 70.1087C638.267 70.433 638.027 70.6792 637.717 70.8473C637.406 71.0154 637.041 71.0994 636.619 71.0994C636.222 71.0994 635.868 71.0272 635.558 70.8828C635.247 70.736 635.004 70.5277 634.826 70.2578C634.648 69.9879 634.56 69.6671 634.56 69.2955H635.426C635.426 69.5014 635.477 69.6813 635.579 69.8352C635.683 69.9867 635.825 70.1051 636.005 70.1903C636.185 70.2756 636.39 70.3182 636.619 70.3182C636.873 70.3182 637.088 70.2649 637.266 70.1584C637.443 70.0518 637.578 69.8956 637.67 69.6896C637.765 69.4813 637.812 69.2268 637.812 68.9261V63.7273ZM645.231 63.7273H646.111V68.5426C646.111 69.0398 645.994 69.4837 645.76 69.8743C645.528 70.2625 645.2 70.5691 644.776 70.794C644.352 71.0166 643.855 71.1278 643.285 71.1278C642.714 71.1278 642.217 71.0166 641.793 70.794C641.37 70.5691 641.04 70.2625 640.806 69.8743C640.574 69.4837 640.458 69.0398 640.458 68.5426V63.7273H641.339V68.4716C641.339 68.8267 641.417 69.1428 641.573 69.4197C641.729 69.6944 641.952 69.911 642.241 70.0696C642.532 70.2259 642.88 70.304 643.285 70.304C643.69 70.304 644.038 70.2259 644.329 70.0696C644.62 69.911 644.843 69.6944 644.996 69.4197C645.153 69.1428 645.231 68.8267 645.231 68.4716V63.7273ZM653.637 63.7273V71H652.785L648.822 65.2898H648.751V71H647.87V63.7273H648.722L652.7 69.4517H652.771V63.7273H653.637Z" fill="#96BAC5"/>
<path opacity="0.5" d="M754.931 63.7273H755.812V68.9261C755.812 69.3902 755.727 69.7843 755.556 70.1087C755.386 70.433 755.146 70.6792 754.835 70.8473C754.525 71.0154 754.16 71.0994 753.738 71.0994C753.34 71.0994 752.987 71.0272 752.676 70.8828C752.366 70.736 752.122 70.5277 751.945 70.2578C751.767 69.9879 751.679 69.6671 751.679 69.2955H752.545C752.545 69.5014 752.596 69.6813 752.698 69.8352C752.802 69.9867 752.944 70.1051 753.124 70.1903C753.304 70.2756 753.509 70.3182 753.738 70.3182C753.992 70.3182 754.207 70.2649 754.384 70.1584C754.562 70.0518 754.697 69.8956 754.789 69.6896C754.884 69.4813 754.931 69.2268 754.931 68.9261V63.7273ZM762.35 63.7273H763.23V68.5426C763.23 69.0398 763.113 69.4837 762.879 69.8743C762.647 70.2625 762.319 70.5691 761.895 70.794C761.471 71.0166 760.974 71.1278 760.404 71.1278C759.833 71.1278 759.336 71.0166 758.912 70.794C758.488 70.5691 758.159 70.2625 757.925 69.8743C757.693 69.4837 757.577 69.0398 757.577 68.5426V63.7273H758.458V68.4716C758.458 68.8267 758.536 69.1428 758.692 69.4197C758.848 69.6944 759.071 69.911 759.36 70.0696C759.651 70.2259 759.999 70.304 760.404 70.304C760.809 70.304 761.157 70.2259 761.448 70.0696C761.739 69.911 761.961 69.6944 762.115 69.4197C762.272 69.1428 762.35 68.8267 762.35 68.4716V63.7273ZM764.989 71V63.7273H765.87V70.2188H769.25V71H764.989Z" fill="#96BAC5"/>
<line opacity="0.25" x1="0.5" y1="37.5" x2="837.5" y2="37.5" stroke="url(#paint14_linear_298_2)" stroke-linecap="round" stroke-dasharray="0.1 5"/>
<path opacity="0.5" d="M4.03871 13V3.54545H7.40874C8.14122 3.54545 8.74905 3.67164 9.23224 3.92401C9.71851 4.17637 10.0817 4.52569 10.3217 4.97195C10.5618 5.41513 10.6818 5.92756 10.6818 6.50923C10.6818 7.08783 10.5603 7.59718 10.3171 8.03729C10.0771 8.47431 9.7139 8.81439 9.22763 9.05753C8.74444 9.30066 8.1366 9.42223 7.40412 9.42223H4.85121V8.19425H7.27486C7.73651 8.19425 8.11198 8.12808 8.40128 7.99574C8.69366 7.8634 8.90755 7.67105 9.04297 7.41868C9.17839 7.16631 9.24609 6.86316 9.24609 6.50923C9.24609 6.15222 9.17685 5.84292 9.03835 5.58132C8.90294 5.31972 8.68904 5.11967 8.39666 4.98118C8.10736 4.83961 7.72727 4.76882 7.25639 4.76882H5.4652V13H4.03871ZM8.70597 8.73438L11.0419 13H9.4169L7.12713 8.73438H8.70597ZM15.2048 13.1431C14.54 13.1431 13.9599 12.9908 13.4644 12.6861C12.9689 12.3814 12.5842 11.9551 12.3103 11.4073C12.0364 10.8595 11.8994 10.2193 11.8994 9.48686C11.8994 8.7513 12.0364 8.10807 12.3103 7.55717C12.5842 7.00627 12.9689 6.57848 13.4644 6.27379C13.9599 5.96911 14.54 5.81676 15.2048 5.81676C15.8696 5.81676 16.4497 5.96911 16.9452 6.27379C17.4407 6.57848 17.8254 7.00627 18.0993 7.55717C18.3733 8.10807 18.5102 8.7513 18.5102 9.48686C18.5102 10.2193 18.3733 10.8595 18.0993 11.4073C17.8254 11.9551 17.4407 12.3814 16.9452 12.6861C16.4497 12.9908 15.8696 13.1431 15.2048 13.1431ZM15.2094 11.9844C15.6403 11.9844 15.9973 11.8705 16.2805 11.6428C16.5636 11.415 16.7729 11.1119 16.9083 10.7333C17.0468 10.3548 17.116 9.93774 17.116 9.48224C17.116 9.02983 17.0468 8.61435 16.9083 8.2358C16.7729 7.85417 16.5636 7.54794 16.2805 7.31712C15.9973 7.08629 15.6403 6.97088 15.2094 6.97088C14.7755 6.97088 14.4154 7.08629 14.1292 7.31712C13.846 7.54794 13.6352 7.85417 13.4967 8.2358C13.3613 8.61435 13.2936 9.02983 13.2936 9.48224C13.2936 9.93774 13.3613 10.3548 13.4967 10.7333C13.6352 11.1119 13.846 11.415 14.1292 11.6428C14.4154 11.8705 14.7755 11.9844 15.2094 11.9844ZM22.1145 13.157C21.6652 13.157 21.2589 13.0739 20.8958 12.9077C20.5326 12.7384 20.2449 12.4937 20.0325 12.1737C19.8232 11.8536 19.7186 11.4612 19.7186 10.9964C19.7186 10.5964 19.7955 10.267 19.9494 10.0085C20.1033 9.75 20.311 9.54534 20.5726 9.39453C20.8342 9.24373 21.1266 9.12985 21.4498 9.05291C21.7729 8.97597 22.1022 8.9175 22.4377 8.87749C22.8624 8.82824 23.2071 8.78823 23.4718 8.75746C23.7364 8.7236 23.9288 8.66974 24.0488 8.59588C24.1689 8.52202 24.2289 8.40199 24.2289 8.2358V8.20348C24.2289 7.80031 24.115 7.48793 23.8873 7.26633C23.6626 7.04474 23.3271 6.93395 22.8809 6.93395C22.4161 6.93395 22.0499 7.03705 21.7821 7.24325C21.5175 7.44638 21.3343 7.67259 21.2328 7.92188L19.9355 7.62642C20.0894 7.19555 20.3141 6.84777 20.6096 6.5831C20.9081 6.31534 21.2512 6.12145 21.639 6.00142C22.0268 5.87831 22.4346 5.81676 22.8624 5.81676C23.1455 5.81676 23.4456 5.85062 23.7626 5.91832C24.0827 5.98295 24.3812 6.10298 24.6582 6.27841C24.9383 6.45383 25.1676 6.70466 25.3461 7.03089C25.5246 7.35405 25.6138 7.77415 25.6138 8.29119V13H24.2658V12.0305H24.2104C24.1212 12.209 23.9873 12.3845 23.8088 12.5568C23.6303 12.7292 23.401 12.8723 23.1209 12.9862C22.8408 13.1 22.5054 13.157 22.1145 13.157ZM22.4146 12.049C22.7962 12.049 23.1225 11.9736 23.3933 11.8228C23.6672 11.672 23.8749 11.475 24.0165 11.2319C24.1612 10.9857 24.2335 10.7225 24.2335 10.4425V9.52841C24.1842 9.57765 24.0888 9.62382 23.9473 9.6669C23.8088 9.70691 23.6503 9.74231 23.4718 9.77308C23.2933 9.80078 23.1194 9.82694 22.9501 9.85156C22.7808 9.87311 22.6393 9.89157 22.5254 9.90696C22.2576 9.94081 22.013 9.99775 21.7914 10.0778C21.5729 10.1578 21.3974 10.2732 21.2651 10.424C21.1358 10.5717 21.0712 10.7687 21.0712 11.0149C21.0712 11.3565 21.1974 11.6151 21.4498 11.7905C21.7021 11.9628 22.0237 12.049 22.4146 12.049ZM30.1068 13.1385C29.5344 13.1385 29.0235 12.9923 28.5741 12.6999C28.1279 12.4045 27.777 11.9844 27.5216 11.4396C27.2692 10.8918 27.143 10.2347 27.143 9.46839C27.143 8.70206 27.2707 8.04652 27.5262 7.50178C27.7847 6.95703 28.1386 6.54001 28.588 6.25071C29.0373 5.96141 29.5467 5.81676 30.116 5.81676C30.5561 5.81676 30.9101 5.89062 31.1778 6.03835C31.4487 6.183 31.6579 6.35227 31.8057 6.54616C31.9565 6.74006 32.0734 6.91087 32.1565 7.05859H32.2396V3.54545H33.6199V13H32.2719V11.8967H32.1565C32.0734 12.0475 31.9534 12.2198 31.7964 12.4137C31.6425 12.6076 31.4302 12.7769 31.1594 12.9215C30.8885 13.0662 30.5377 13.1385 30.1068 13.1385ZM30.4115 11.9613C30.8085 11.9613 31.144 11.8567 31.4179 11.6474C31.6949 11.435 31.9041 11.1411 32.0457 10.7656C32.1904 10.3902 32.2627 9.95312 32.2627 9.45455C32.2627 8.96212 32.1919 8.53125 32.0503 8.16193C31.9088 7.79261 31.701 7.50485 31.4271 7.29865C31.1532 7.09245 30.8147 6.98935 30.4115 6.98935C29.996 6.98935 29.6498 7.09706 29.3728 7.3125C29.0958 7.52794 28.8865 7.82185 28.7449 8.19425C28.6064 8.56664 28.5372 8.98674 28.5372 9.45455C28.5372 9.9285 28.608 10.3548 28.7496 10.7333C28.8911 11.1119 29.1004 11.4119 29.3774 11.6335C29.6575 11.852 30.0022 11.9613 30.4115 11.9613ZM35.59 13V5.90909H36.915V7.06321H37.0027C37.1504 6.67235 37.392 6.36766 37.7275 6.14915C38.0629 5.92756 38.4645 5.81676 38.9324 5.81676C39.4063 5.81676 39.8033 5.92756 40.1234 6.14915C40.4466 6.37074 40.6851 6.67543 40.839 7.06321H40.9128C41.0821 6.68466 41.3514 6.38305 41.7207 6.15838C42.09 5.93063 42.5301 5.81676 43.041 5.81676C43.6842 5.81676 44.209 6.01835 44.6152 6.42152C45.0246 6.82469 45.2292 7.43253 45.2292 8.24503V13H43.8489V8.37429C43.8489 7.89418 43.7181 7.5464 43.4565 7.33097C43.1949 7.11553 42.8825 7.00781 42.5194 7.00781C42.07 7.00781 41.7207 7.14631 41.4714 7.4233C41.2221 7.69721 41.0975 8.0496 41.0975 8.48047V13H39.7218V8.28658C39.7218 7.90187 39.6017 7.59257 39.3617 7.35866C39.1216 7.12476 38.8092 7.00781 38.4245 7.00781C38.1629 7.00781 37.9213 7.07706 37.6998 7.21555C37.4812 7.35097 37.3043 7.54025 37.1689 7.78338C37.0365 8.02652 36.9703 8.30812 36.9703 8.6282V13H35.59ZM49.1428 13.157C48.6935 13.157 48.2873 13.0739 47.9241 12.9077C47.5609 12.7384 47.2732 12.4937 47.0608 12.1737C46.8515 11.8536 46.7469 11.4612 46.7469 10.9964C46.7469 10.5964 46.8238 10.267 46.9777 10.0085C47.1316 9.75 47.3393 9.54534 47.6009 9.39453C47.8625 9.24373 48.1549 9.12985 48.4781 9.05291C48.8012 8.97597 49.1305 8.9175 49.466 8.87749C49.8907 8.82824 50.2354 8.78823 50.5001 8.75746C50.7648 8.7236 50.9571 8.66974 51.0771 8.59588C51.1972 8.52202 51.2572 8.40199 51.2572 8.2358V8.20348C51.2572 7.80031 51.1433 7.48793 50.9156 7.26633C50.6909 7.04474 50.3554 6.93395 49.9092 6.93395C49.4445 6.93395 49.0782 7.03705 48.8105 7.24325C48.5458 7.44638 48.3627 7.67259 48.2611 7.92188L46.9639 7.62642C47.1177 7.19555 47.3424 6.84777 47.6379 6.5831C47.9364 6.31534 48.2796 6.12145 48.6673 6.00142C49.0551 5.87831 49.4629 5.81676 49.8907 5.81676C50.1739 5.81676 50.4739 5.85062 50.7909 5.91832C51.111 5.98295 51.4095 6.10298 51.6865 6.27841C51.9666 6.45383 52.1959 6.70466 52.3744 7.03089C52.5529 7.35405 52.6421 7.77415 52.6421 8.29119V13H51.2941V12.0305H51.2387C51.1495 12.209 51.0156 12.3845 50.8371 12.5568C50.6586 12.7292 50.4293 12.8723 50.1492 12.9862C49.8692 13.1 49.5337 13.157 49.1428 13.157ZM49.4429 12.049C49.8245 12.049 50.1508 11.9736 50.4216 11.8228C50.6955 11.672 50.9033 11.475 51.0448 11.2319C51.1895 10.9857 51.2618 10.7225 51.2618 10.4425V9.52841C51.2126 9.57765 51.1172 9.62382 50.9756 9.6669C50.8371 9.70691 50.6786 9.74231 50.5001 9.77308C50.3216 9.80078 50.1477 9.82694 49.9784 9.85156C49.8092 9.87311 49.6676 9.89157 49.5537 9.90696C49.286 9.94081 49.0413 9.99775 48.8197 10.0778C48.6012 10.1578 48.4258 10.2732 48.2934 10.424C48.1642 10.5717 48.0995 10.7687 48.0995 11.0149C48.0995 11.3565 48.2257 11.6151 48.4781 11.7905C48.7304 11.9628 49.0521 12.049 49.4429 12.049ZM54.4806 15.6591V5.90909H55.8287V7.05859H55.9441C56.0241 6.91087 56.1395 6.74006 56.2903 6.54616C56.4411 6.35227 56.6504 6.183 56.9181 6.03835C57.1859 5.89062 57.5398 5.81676 57.9799 5.81676C58.5524 5.81676 59.0633 5.96141 59.5126 6.25071C59.9619 6.54001 60.3143 6.95703 60.5698 7.50178C60.8283 8.04652 60.9576 8.70206 60.9576 9.46839C60.9576 10.2347 60.8298 10.8918 60.5744 11.4396C60.319 11.9844 59.9681 12.4045 59.5218 12.6999C59.0756 12.9923 58.5662 13.1385 57.9938 13.1385C57.5629 13.1385 57.2105 13.0662 56.9366 12.9215C56.6658 12.7769 56.4534 12.6076 56.2995 12.4137C56.1457 12.2198 56.0272 12.0475 55.9441 11.8967H55.861V15.6591H54.4806ZM55.8333 9.45455C55.8333 9.95312 55.9056 10.3902 56.0502 10.7656C56.1949 11.1411 56.4042 11.435 56.6781 11.6474C56.952 11.8567 57.2875 11.9613 57.6845 11.9613C58.0969 11.9613 58.4416 11.852 58.7186 11.6335C58.9956 11.4119 59.2048 11.1119 59.3464 10.7333C59.4911 10.3548 59.5634 9.9285 59.5634 9.45455C59.5634 8.98674 59.4926 8.56664 59.351 8.19425C59.2125 7.82185 59.0033 7.52794 58.7232 7.3125C58.4462 7.09706 58.1 6.98935 57.6845 6.98935C57.2844 6.98935 56.9458 7.09245 56.6689 7.29865C56.3949 7.50485 56.1872 7.79261 56.0456 8.16193C55.9041 8.53125 55.8333 8.96212 55.8333 9.45455ZM66.0553 13V3.54545H69.4253C70.1609 3.54545 70.7703 3.67933 71.2535 3.94709C71.7367 4.21484 72.0983 4.58108 72.3383 5.04581C72.5784 5.50746 72.6984 6.02758 72.6984 6.60618C72.6984 7.18785 72.5769 7.71106 72.3337 8.17578C72.0937 8.63743 71.7305 9.00367 71.2442 9.2745C70.761 9.54226 70.1532 9.67614 69.4207 9.67614H67.1032V8.46662H69.2915C69.7562 8.46662 70.1332 8.3866 70.4225 8.22656C70.7118 8.06345 70.9242 7.84186 71.0596 7.56179C71.195 7.28172 71.2627 6.96319 71.2627 6.60618C71.2627 6.24917 71.195 5.93217 71.0596 5.65518C70.9242 5.3782 70.7103 5.16122 70.4179 5.00426C70.1286 4.8473 69.747 4.76882 69.273 4.76882H67.4818V13H66.0553ZM74.2599 13V5.90909H75.5941V7.03551H75.668C75.7972 6.65388 76.025 6.35381 76.3512 6.1353C76.6805 5.91371 77.0529 5.80291 77.4684 5.80291C77.5546 5.80291 77.6561 5.80599 77.7731 5.81214C77.8931 5.8183 77.987 5.82599 78.0547 5.83523V7.15554C77.9993 7.14015 77.9008 7.12322 77.7592 7.10476C77.6177 7.08321 77.4761 7.07244 77.3345 7.07244C77.0083 7.07244 76.7174 7.14169 76.462 7.28018C76.2096 7.4156 76.0096 7.60488 75.8619 7.84801C75.7141 8.08807 75.6403 8.36198 75.6403 8.66974V13H74.2599ZM81.9822 13.1431C81.3174 13.1431 80.7372 12.9908 80.2417 12.6861C79.7462 12.3814 79.3615 11.9551 79.0876 11.4073C78.8137 10.8595 78.6768 10.2193 78.6768 9.48686C78.6768 8.7513 78.8137 8.10807 79.0876 7.55717C79.3615 7.00627 79.7462 6.57848 80.2417 6.27379C80.7372 5.96911 81.3174 5.81676 81.9822 5.81676C82.6469 5.81676 83.2271 5.96911 83.7226 6.27379C84.2181 6.57848 84.6028 7.00627 84.8767 7.55717C85.1506 8.10807 85.2876 8.7513 85.2876 9.48686C85.2876 10.2193 85.1506 10.8595 84.8767 11.4073C84.6028 11.9551 84.2181 12.3814 83.7226 12.6861C83.2271 12.9908 82.6469 13.1431 81.9822 13.1431ZM81.9868 11.9844C82.4176 11.9844 82.7747 11.8705 83.0578 11.6428C83.3409 11.415 83.5502 11.1119 83.6856 10.7333C83.8241 10.3548 83.8934 9.93774 83.8934 9.48224C83.8934 9.02983 83.8241 8.61435 83.6856 8.2358C83.5502 7.85417 83.3409 7.54794 83.0578 7.31712C82.7747 7.08629 82.4176 6.97088 81.9868 6.97088C81.5528 6.97088 81.1927 7.08629 80.9065 7.31712C80.6234 7.54794 80.4126 7.85417 80.2741 8.2358C80.1386 8.61435 80.0709 9.02983 80.0709 9.48224C80.0709 9.93774 80.1386 10.3548 80.2741 10.7333C80.4126 11.1119 80.6234 11.415 80.9065 11.6428C81.1927 11.8705 81.5528 11.9844 81.9868 11.9844ZM86.8283 5.90909H88.2086V13.4616C88.2086 13.9356 88.1225 14.3357 87.9501 14.6619C87.7808 14.9882 87.5285 15.2359 87.193 15.4052C86.8606 15.5745 86.4498 15.6591 85.9604 15.6591C85.9112 15.6591 85.865 15.6591 85.8219 15.6591C85.7757 15.6591 85.728 15.6576 85.6788 15.6545V14.468C85.7219 14.468 85.7604 14.468 85.7942 14.468C85.825 14.468 85.8604 14.468 85.9004 14.468C86.2266 14.468 86.4621 14.3803 86.6067 14.2049C86.7544 14.0326 86.8283 13.7817 86.8283 13.4524V5.90909ZM87.5115 4.81499C87.2715 4.81499 87.0653 4.73497 86.8929 4.57493C86.7237 4.41181 86.639 4.21792 86.639 3.99325C86.639 3.76551 86.7237 3.57161 86.8929 3.41158C87.0653 3.24846 87.2715 3.1669 87.5115 3.1669C87.7516 3.1669 87.9563 3.24846 88.1255 3.41158C88.2979 3.57161 88.3841 3.76551 88.3841 3.99325C88.3841 4.21792 88.2979 4.41181 88.1255 4.57493C87.9563 4.73497 87.7516 4.81499 87.5115 4.81499ZM93.1217 13.1431C92.4231 13.1431 91.8214 12.9938 91.3167 12.6953C90.815 12.3937 90.4272 11.9705 90.1533 11.4258C89.8825 10.878 89.7471 10.2363 89.7471 9.50071C89.7471 8.77438 89.8825 8.13423 90.1533 7.58026C90.4272 7.02628 90.8089 6.59387 91.2982 6.28303C91.7906 5.97218 92.3662 5.81676 93.0248 5.81676C93.4249 5.81676 93.8126 5.88293 94.1881 6.01527C94.5636 6.14761 94.9006 6.35535 95.1991 6.63849C95.4977 6.92164 95.7331 7.28942 95.9055 7.74183C96.0778 8.19117 96.164 8.73745 96.164 9.38068V9.87003H90.5273V8.83594H94.8113C94.8113 8.47277 94.7375 8.15116 94.5898 7.87109C94.442 7.58795 94.2343 7.36482 93.9665 7.2017C93.7019 7.03859 93.391 6.95703 93.034 6.95703C92.6462 6.95703 92.3077 7.05244 92.0184 7.24325C91.7322 7.43099 91.5106 7.6772 91.3536 7.98189C91.1997 8.2835 91.1228 8.61127 91.1228 8.9652V9.77308C91.1228 10.247 91.2059 10.6502 91.3721 10.9826C91.5413 11.315 91.7768 11.5689 92.0784 11.7443C92.38 11.9167 92.7324 12.0028 93.1356 12.0028C93.3972 12.0028 93.6357 11.9659 93.8511 11.892C94.0666 11.8151 94.2528 11.7012 94.4097 11.5504C94.5667 11.3996 94.6867 11.2134 94.7698 10.9918L96.0763 11.2273C95.9716 11.612 95.7839 11.949 95.5131 12.2383C95.2453 12.5245 94.9083 12.7476 94.502 12.9077C94.0989 13.0646 93.6388 13.1431 93.1217 13.1431ZM100.682 13.1431C99.996 13.1431 99.4051 12.9877 98.9096 12.6768C98.4172 12.3629 98.0386 11.9305 97.774 11.3796C97.5093 10.8287 97.377 10.1978 97.377 9.48686C97.377 8.76669 97.5124 8.13115 97.7832 7.58026C98.054 7.02628 98.4357 6.59387 98.9281 6.28303C99.4205 5.97218 100.001 5.81676 100.669 5.81676C101.207 5.81676 101.687 5.91679 102.109 6.11683C102.53 6.3138 102.871 6.59079 103.129 6.9478C103.391 7.30481 103.546 7.72183 103.595 8.19886H102.252C102.178 7.86648 102.009 7.58026 101.744 7.3402C101.483 7.10014 101.132 6.98011 100.692 6.98011C100.307 6.98011 99.9699 7.08168 99.6806 7.2848C99.3944 7.48485 99.1712 7.77107 99.0112 8.14347C98.8511 8.51278 98.7711 8.94981 98.7711 9.45455C98.7711 9.97159 98.8496 10.4179 99.0066 10.7933C99.1635 11.1688 99.3851 11.4596 99.6713 11.6658C99.9606 11.872 100.301 11.9751 100.692 11.9751C100.953 11.9751 101.19 11.9274 101.403 11.832C101.618 11.7335 101.798 11.5935 101.943 11.4119C102.09 11.2304 102.193 11.0118 102.252 10.7564H103.595C103.546 11.215 103.397 11.6243 103.148 11.9844C102.898 12.3445 102.564 12.6276 102.146 12.8338C101.73 13.04 101.242 13.1431 100.682 13.1431ZM108.381 5.90909V7.01705H104.508V5.90909H108.381ZM105.547 4.21023H106.927V10.918C106.927 11.1857 106.967 11.3873 107.047 11.5227C107.127 11.6551 107.23 11.7459 107.357 11.7951C107.486 11.8413 107.626 11.8643 107.777 11.8643C107.888 11.8643 107.984 11.8567 108.068 11.8413C108.151 11.8259 108.215 11.8136 108.261 11.8043L108.511 12.9446C108.431 12.9754 108.317 13.0062 108.169 13.0369C108.021 13.0708 107.837 13.0893 107.615 13.0923C107.252 13.0985 106.913 13.0339 106.6 12.8984C106.286 12.763 106.032 12.5537 105.838 12.2706C105.644 11.9875 105.547 11.632 105.547 11.2042V4.21023Z" fill="white"/>
<path opacity="0.5" d="M405.909 13V11.9659L409.109 8.65128C409.45 8.29119 409.732 7.97573 409.953 7.7049C410.178 7.43099 410.346 7.17093 410.457 6.92472C410.567 6.6785 410.623 6.4169 410.623 6.13991C410.623 5.82599 410.549 5.55516 410.401 5.32741C410.254 5.09659 410.052 4.91963 409.797 4.79652C409.541 4.67034 409.253 4.60724 408.933 4.60724C408.595 4.60724 408.299 4.67649 408.047 4.81499C407.795 4.95348 407.601 5.14891 407.465 5.40128C407.33 5.65365 407.262 5.9491 407.262 6.28764H405.9C405.9 5.71212 406.033 5.20893 406.297 4.77805C406.562 4.34718 406.925 4.01326 407.387 3.77628C407.848 3.53622 408.373 3.41619 408.961 3.41619C409.555 3.41619 410.078 3.53468 410.531 3.77166C410.986 4.00556 411.342 4.32564 411.597 4.73189C411.852 5.13506 411.98 5.59055 411.98 6.09837C411.98 6.44922 411.914 6.79238 411.782 7.12784C411.652 7.4633 411.426 7.83724 411.103 8.24964C410.78 8.65897 410.33 9.15601 409.755 9.74077L407.876 11.7074V11.7766H412.132V13H405.909ZM417.174 13.157C416.444 13.1539 415.821 12.9615 415.304 12.5799C414.787 12.1983 414.391 11.6428 414.118 10.9134C413.844 10.1839 413.707 9.30528 413.707 8.27734C413.707 7.25249 413.844 6.37689 414.118 5.65057C414.395 4.92424 414.792 4.37026 415.309 3.98864C415.829 3.60701 416.45 3.41619 417.174 3.41619C417.897 3.41619 418.517 3.60855 419.034 3.99325C419.551 4.37488 419.947 4.92886 420.221 5.65518C420.498 6.37843 420.636 7.25249 420.636 8.27734C420.636 9.30836 420.499 10.1886 420.225 10.918C419.951 11.6443 419.556 12.1998 419.039 12.5845C418.522 12.9661 417.9 13.157 417.174 13.157ZM417.174 11.9244C417.814 11.9244 418.314 11.612 418.674 10.9872C419.037 10.3625 419.219 9.45916 419.219 8.27734C419.219 7.49254 419.136 6.82931 418.969 6.28764C418.806 5.7429 418.571 5.33049 418.263 5.05043C417.958 4.76728 417.595 4.62571 417.174 4.62571C416.537 4.62571 416.036 4.93963 415.673 5.56747C415.31 6.19531 415.127 7.0986 415.124 8.27734C415.124 9.06522 415.205 9.73153 415.369 10.2763C415.535 10.8179 415.77 11.2288 416.075 11.5089C416.38 11.7859 416.746 11.9244 417.174 11.9244ZM422.274 13V11.9659L425.473 8.65128C425.815 8.29119 426.096 7.97573 426.318 7.7049C426.542 7.43099 426.71 7.17093 426.821 6.92472C426.932 6.6785 426.987 6.4169 426.987 6.13991C426.987 5.82599 426.913 5.55516 426.766 5.32741C426.618 5.09659 426.416 4.91963 426.161 4.79652C425.905 4.67034 425.618 4.60724 425.297 4.60724C424.959 4.60724 424.664 4.67649 424.411 4.81499C424.159 4.95348 423.965 5.14891 423.829 5.40128C423.694 5.65365 423.626 5.9491 423.626 6.28764H422.264C422.264 5.71212 422.397 5.20893 422.661 4.77805C422.926 4.34718 423.289 4.01326 423.751 3.77628C424.213 3.53622 424.737 3.41619 425.325 3.41619C425.919 3.41619 426.442 3.53468 426.895 3.77166C427.35 4.00556 427.706 4.32564 427.961 4.73189C428.217 5.13506 428.344 5.59055 428.344 6.09837C428.344 6.44922 428.278 6.79238 428.146 7.12784C428.017 7.4633 427.79 7.83724 427.467 8.24964C427.144 8.65897 426.695 9.15601 426.119 9.74077L424.24 11.7074V11.7766H428.497V13H422.274ZM429.845 11.1534V9.99929L433.93 3.54545H434.84V5.24432H434.263L431.34 9.87003V9.94389H436.94V11.1534H429.845ZM434.327 13V10.8026L434.337 10.2763V3.54545H435.689V13H434.327Z" fill="white"/>
<g opacity="0.2">
<rect x="11.5" y="114.5" width="462" height="106" rx="9.5" fill="black"/>
<rect x="11.5" y="114.5" width="462" height="106" rx="9.5" fill="url(#paint15_linear_298_2)" fill-opacity="0.33"/>
<rect x="11.5" y="114.5" width="462" height="106" rx="9.5" stroke="white"/>
</g>
<circle cx="443.5" cy="140.5" r="12.5" fill="url(#paint16_linear_298_2)"/>
<path opacity="0.5" d="M439.72 137.48V137.2H442.46V137.48L441.91 137.55C441.803 137.563 441.74 137.593 441.72 137.64C441.7 137.68 441.69 137.813 441.69 138.04V142.06C441.69 142.44 441.627 142.787 441.5 143.1C441.373 143.407 441.167 143.65 440.88 143.83C440.593 144.01 440.21 144.1 439.73 144.1C439.483 144.1 439.24 144.06 439 143.98C438.767 143.893 438.563 143.74 438.39 143.52C438.223 143.3 438.113 142.987 438.06 142.58L438.75 142.38C438.77 142.747 438.823 143.03 438.91 143.23C438.997 143.423 439.107 143.56 439.24 143.64C439.373 143.713 439.517 143.75 439.67 143.75C439.823 143.75 439.96 143.71 440.08 143.63C440.207 143.55 440.307 143.403 440.38 143.19C440.453 142.977 440.49 142.667 440.49 142.26V138.04C440.49 137.813 440.48 137.68 440.46 137.64C440.44 137.593 440.377 137.563 440.27 137.55L439.72 137.48ZM443.186 137.48V137.2H445.946C446.479 137.2 446.903 137.273 447.216 137.42C447.529 137.567 447.753 137.76 447.886 138C448.026 138.24 448.096 138.507 448.096 138.8V139.07C448.096 139.417 447.986 139.717 447.766 139.97C447.553 140.217 447.239 140.393 446.826 140.5C447.333 140.587 447.719 140.767 447.986 141.04C448.259 141.313 448.396 141.657 448.396 142.07V142.35C448.396 142.65 448.326 142.927 448.186 143.18C448.046 143.427 447.813 143.627 447.486 143.78C447.166 143.927 446.736 144 446.196 144H443.186V143.72L443.736 143.65C443.843 143.637 443.906 143.61 443.926 143.57C443.946 143.523 443.956 143.387 443.956 143.16V138.04C443.956 137.813 443.946 137.68 443.926 137.64C443.906 137.593 443.843 137.563 443.736 137.55L443.186 137.48ZM445.946 137.55H445.156V140.35H445.946C446.233 140.35 446.449 140.253 446.596 140.06C446.743 139.86 446.816 139.547 446.816 139.12V138.8C446.816 138.367 446.743 138.05 446.596 137.85C446.449 137.65 446.233 137.55 445.946 137.55ZM446.196 140.7H445.156V143.65H446.196C446.496 143.65 446.723 143.55 446.876 143.35C447.036 143.143 447.116 142.81 447.116 142.35V142.02C447.116 141.14 446.809 140.7 446.196 140.7Z" fill="white"/>
<rect opacity="0.1" x="55" y="142" width="200" height="3" fill="#D9D9D9"/>
<rect opacity="0.4" x="55" y="142" width="20" height="3" fill="white"/>
<path opacity="0.5" d="M31.8899 174L29.2678 164.545H30.7681L32.6101 171.867H32.6978L34.6136 164.545H36.1001L38.016 171.872H38.1037L39.9411 164.545H41.446L38.8192 174H37.3835L35.3938 166.918H35.32L33.3303 174H31.8899ZM42.6359 174V166.909H44.0162V174H42.6359ZM43.333 165.815C43.093 165.815 42.8867 165.735 42.7144 165.575C42.5451 165.412 42.4605 165.218 42.4605 164.993C42.4605 164.766 42.5451 164.572 42.7144 164.412C42.8867 164.248 43.093 164.167 43.333 164.167C43.5731 164.167 43.7777 164.248 43.947 164.412C44.1193 164.572 44.2055 164.766 44.2055 164.993C44.2055 165.218 44.1193 165.412 43.947 165.575C43.7777 165.735 43.5731 165.815 43.333 165.815ZM45.8732 174V166.909H47.2074V168.036H47.2812C47.4105 167.654 47.6383 167.354 47.9645 167.135C48.2938 166.914 48.6662 166.803 49.0817 166.803C49.1679 166.803 49.2694 166.806 49.3864 166.812C49.5064 166.818 49.6003 166.826 49.668 166.835V168.156C49.6126 168.14 49.5141 168.123 49.3725 168.105C49.2309 168.083 49.0894 168.072 48.9478 168.072C48.6216 168.072 48.3307 168.142 48.0753 168.28C47.8229 168.416 47.6229 168.605 47.4751 168.848C47.3274 169.088 47.2536 169.362 47.2536 169.67V174H45.8732ZM53.6647 174.143C52.9661 174.143 52.3644 173.994 51.8596 173.695C51.358 173.394 50.9702 172.971 50.6963 172.426C50.4255 171.878 50.29 171.236 50.29 170.501C50.29 169.774 50.4255 169.134 50.6963 168.58C50.9702 168.026 51.3518 167.594 51.8412 167.283C52.3336 166.972 52.9091 166.817 53.5677 166.817C53.9678 166.817 54.3556 166.883 54.7311 167.015C55.1066 167.148 55.4436 167.355 55.7421 167.638C56.0406 167.922 56.2761 168.289 56.4484 168.742C56.6208 169.191 56.7069 169.737 56.7069 170.381V170.87H51.0702V169.836H55.3543C55.3543 169.473 55.2805 169.151 55.1327 168.871C54.985 168.588 54.7773 168.365 54.5095 168.202C54.2448 168.039 53.934 167.957 53.577 167.957C53.1892 167.957 52.8506 168.052 52.5613 168.243C52.2751 168.431 52.0535 168.677 51.8966 168.982C51.7427 169.283 51.6657 169.611 51.6657 169.965V170.773C51.6657 171.247 51.7488 171.65 51.915 171.983C52.0843 172.315 52.3198 172.569 52.6214 172.744C52.923 172.917 53.2754 173.003 53.6785 173.003C53.9401 173.003 54.1787 172.966 54.3941 172.892C54.6095 172.815 54.7957 172.701 54.9527 172.55C55.1096 172.4 55.2297 172.213 55.3128 171.992L56.6192 172.227C56.5146 172.612 56.3269 172.949 56.056 173.238C55.7883 173.525 55.4513 173.748 55.045 173.908C54.6418 174.065 54.1817 174.143 53.6647 174.143ZM61.6131 166.909V168.017H57.606V166.909H61.6131ZM58.7047 174V166.087C58.7047 165.644 58.8017 165.276 58.9956 164.984C59.1895 164.689 59.4464 164.469 59.7665 164.324C60.0866 164.176 60.4344 164.102 60.8098 164.102C61.0868 164.102 61.3238 164.125 61.5208 164.172C61.7177 164.215 61.8639 164.255 61.9593 164.292L61.6362 165.409C61.5716 165.39 61.4885 165.369 61.3869 165.344C61.2853 165.316 61.1622 165.303 61.0176 165.303C60.6821 165.303 60.4421 165.386 60.2974 165.552C60.1558 165.718 60.085 165.958 60.085 166.272V174H58.7047ZM63.0373 174V166.909H64.3714V168.036H64.4453C64.5746 167.654 64.8023 167.354 65.1286 167.135C65.4579 166.914 65.8303 166.803 66.2457 166.803C66.3319 166.803 66.4335 166.806 66.5504 166.812C66.6705 166.818 66.7643 166.826 66.832 166.835V168.156C66.7766 168.14 66.6781 168.123 66.5366 168.105C66.395 168.083 66.2534 168.072 66.1119 168.072C65.7856 168.072 65.4948 168.142 65.2393 168.28C64.987 168.416 64.7869 168.605 64.6392 168.848C64.4915 169.088 64.4176 169.362 64.4176 169.67V174H63.0373ZM70.0266 174.157C69.5773 174.157 69.171 174.074 68.8079 173.908C68.4447 173.738 68.157 173.494 67.9446 173.174C67.7353 172.854 67.6307 172.461 67.6307 171.996C67.6307 171.596 67.7076 171.267 67.8615 171.009C68.0154 170.75 68.2231 170.545 68.4847 170.395C68.7463 170.244 69.0387 170.13 69.3619 170.053C69.685 169.976 70.0143 169.917 70.3498 169.877C70.7745 169.828 71.1192 169.788 71.3839 169.757C71.6486 169.724 71.8409 169.67 71.9609 169.596C72.081 169.522 72.141 169.402 72.141 169.236V169.203C72.141 168.8 72.0271 168.488 71.7994 168.266C71.5747 168.045 71.2392 167.934 70.793 167.934C70.3282 167.934 69.962 168.037 69.6942 168.243C69.4296 168.446 69.2464 168.673 69.1449 168.922L67.8477 168.626C68.0015 168.196 68.2262 167.848 68.5217 167.583C68.8202 167.315 69.1634 167.121 69.5511 167.001C69.9389 166.878 70.3467 166.817 70.7745 166.817C71.0576 166.817 71.3577 166.851 71.6747 166.918C71.9948 166.983 72.2933 167.103 72.5703 167.278C72.8504 167.454 73.0797 167.705 73.2582 168.031C73.4367 168.354 73.5259 168.774 73.5259 169.291V174H72.1779V173.031H72.1225C72.0333 173.209 71.8994 173.384 71.7209 173.557C71.5424 173.729 71.3131 173.872 71.033 173.986C70.753 174.1 70.4175 174.157 70.0266 174.157ZM70.3267 173.049C70.7083 173.049 71.0346 172.974 71.3054 172.823C71.5793 172.672 71.7871 172.475 71.9286 172.232C72.0733 171.986 72.1456 171.723 72.1456 171.442V170.528C72.0964 170.578 72.0009 170.624 71.8594 170.667C71.7209 170.707 71.5624 170.742 71.3839 170.773C71.2054 170.801 71.0315 170.827 70.8622 170.852C70.6929 170.873 70.5514 170.892 70.4375 170.907C70.1697 170.941 69.9251 170.998 69.7035 171.078C69.485 171.158 69.3095 171.273 69.1772 171.424C69.0479 171.572 68.9833 171.769 68.9833 172.015C68.9833 172.357 69.1095 172.615 69.3619 172.79C69.6142 172.963 69.9358 173.049 70.3267 173.049ZM75.3644 174V166.909H76.6894V168.063H76.7771C76.9248 167.672 77.1664 167.368 77.5019 167.149C77.8373 166.928 78.239 166.817 78.7068 166.817C79.1807 166.817 79.5777 166.928 79.8978 167.149C80.221 167.371 80.4595 167.675 80.6134 168.063H80.6872C80.8565 167.685 81.1258 167.383 81.4951 167.158C81.8644 166.931 82.3045 166.817 82.8154 166.817C83.4587 166.817 83.9834 167.018 84.3896 167.422C84.799 167.825 85.0036 168.433 85.0036 169.245V174H83.6233V169.374C83.6233 168.894 83.4925 168.546 83.2309 168.331C82.9693 168.116 82.6569 168.008 82.2938 168.008C81.8444 168.008 81.4951 168.146 81.2458 168.423C80.9965 168.697 80.8719 169.05 80.8719 169.48V174H79.4962V169.287C79.4962 168.902 79.3762 168.593 79.1361 168.359C78.896 168.125 78.5837 168.008 78.199 168.008C77.9374 168.008 77.6958 168.077 77.4742 168.216C77.2557 168.351 77.0787 168.54 76.9433 168.783C76.8109 169.027 76.7448 169.308 76.7448 169.628V174H75.3644ZM86.8537 174V166.909H88.234V174H86.8537ZM87.5508 165.815C87.3107 165.815 87.1045 165.735 86.9322 165.575C86.7629 165.412 86.6783 165.218 86.6783 164.993C86.6783 164.766 86.7629 164.572 86.9322 164.412C87.1045 164.248 87.3107 164.167 87.5508 164.167C87.7908 164.167 87.9955 164.248 88.1648 164.412C88.3371 164.572 88.4233 164.766 88.4233 164.993C88.4233 165.218 88.3371 165.412 88.1648 165.575C87.9955 165.735 87.7908 165.815 87.5508 165.815ZM91.4713 169.79V174H90.091V166.909H91.4159V168.063H91.5036C91.6668 167.688 91.9222 167.386 92.27 167.158C92.6208 166.931 93.0625 166.817 93.5949 166.817C94.0781 166.817 94.5013 166.918 94.8644 167.121C95.2276 167.321 95.5092 167.62 95.7093 168.017C95.9093 168.414 96.0093 168.905 96.0093 169.49V174H94.629V169.656C94.629 169.142 94.4951 168.74 94.2274 168.451C93.9596 168.159 93.5918 168.012 93.124 168.012C92.8039 168.012 92.5193 168.082 92.27 168.22C92.0238 168.359 91.8283 168.562 91.6837 168.83C91.5421 169.094 91.4713 169.414 91.4713 169.79ZM100.834 176.807C100.27 176.807 99.7856 176.733 99.3794 176.585C98.9762 176.438 98.6469 176.242 98.3914 175.999C98.136 175.756 97.9452 175.49 97.819 175.2L99.0054 174.711C99.0885 174.846 99.1993 174.989 99.3378 175.14C99.4794 175.294 99.6702 175.425 99.9102 175.533C100.153 175.64 100.466 175.694 100.847 175.694C101.371 175.694 101.803 175.567 102.145 175.311C102.486 175.059 102.657 174.656 102.657 174.102V172.707H102.569C102.486 172.858 102.366 173.026 102.209 173.211C102.055 173.395 101.843 173.555 101.572 173.691C101.301 173.826 100.949 173.894 100.515 173.894C99.9549 173.894 99.4501 173.763 99.0008 173.501C98.5545 173.237 98.2006 172.847 97.939 172.333C97.6805 171.816 97.5512 171.181 97.5512 170.427C97.5512 169.673 97.6789 169.027 97.9344 168.488C98.1929 167.949 98.5468 167.537 98.9962 167.251C99.4455 166.961 99.9549 166.817 100.524 166.817C100.964 166.817 101.32 166.891 101.591 167.038C101.861 167.183 102.072 167.352 102.223 167.546C102.377 167.74 102.495 167.911 102.579 168.059H102.68V166.909H104.033V174.157C104.033 174.766 103.891 175.266 103.608 175.657C103.325 176.048 102.942 176.337 102.459 176.525C101.978 176.713 101.437 176.807 100.834 176.807ZM100.82 172.749C101.217 172.749 101.552 172.657 101.826 172.472C102.103 172.284 102.312 172.016 102.454 171.669C102.599 171.318 102.671 170.898 102.671 170.408C102.671 169.931 102.6 169.511 102.459 169.148C102.317 168.785 102.109 168.502 101.835 168.299C101.561 168.092 101.223 167.989 100.82 167.989C100.404 167.989 100.058 168.097 99.781 168.312C99.504 168.525 99.2947 168.814 99.1531 169.18C99.0146 169.547 98.9454 169.956 98.9454 170.408C98.9454 170.873 99.0162 171.281 99.1578 171.632C99.2993 171.983 99.5086 172.257 99.7856 172.453C100.066 172.65 100.41 172.749 100.82 172.749Z" fill="white"/>
<path opacity="0.5" d="M32.4588 139.727V147H31.358V140.828H31.3153L29.5753 141.964V140.913L31.3899 139.727H32.4588ZM36.9581 147.121C36.397 147.118 35.9176 146.97 35.5199 146.677C35.1222 146.383 34.8179 145.956 34.6072 145.395C34.3965 144.834 34.2912 144.158 34.2912 143.367C34.2912 142.579 34.3965 141.905 34.6072 141.347C34.8203 140.788 35.1257 140.362 35.5234 140.068C35.9235 139.775 36.4018 139.628 36.9581 139.628C37.5144 139.628 37.9915 139.776 38.3892 140.072C38.7869 140.365 39.0911 140.791 39.3018 141.35C39.5149 141.906 39.6214 142.579 39.6214 143.367C39.6214 144.16 39.5161 144.837 39.3054 145.398C39.0947 145.957 38.7905 146.384 38.3928 146.68C37.995 146.974 37.5168 147.121 36.9581 147.121ZM36.9581 146.173C37.4505 146.173 37.8352 145.932 38.1122 145.452C38.3916 144.971 38.5312 144.276 38.5312 143.367C38.5312 142.763 38.4673 142.253 38.3395 141.837C38.214 141.418 38.0329 141.1 37.7962 140.885C37.5618 140.667 37.2824 140.558 36.9581 140.558C36.468 140.558 36.0833 140.8 35.804 141.283C35.5246 141.766 35.3838 142.46 35.3814 143.367C35.3814 143.973 35.4441 144.486 35.5696 144.905C35.6974 145.321 35.8786 145.638 36.1129 145.853C36.3473 146.066 36.629 146.173 36.9581 146.173ZM44.6774 145.636V145.253C44.6774 144.978 44.7342 144.727 44.8478 144.5C44.9638 144.27 45.1319 144.087 45.3521 143.95C45.5746 143.81 45.8433 143.74 46.1582 143.74C46.4802 143.74 46.7501 143.809 46.9679 143.946C47.1857 144.083 47.3502 144.267 47.4615 144.496C47.5751 144.726 47.6319 144.978 47.6319 145.253V145.636C47.6319 145.911 47.5751 146.163 47.4615 146.393C47.3478 146.62 47.1809 146.804 46.9608 146.943C46.743 147.08 46.4754 147.149 46.1582 147.149C45.8386 147.149 45.5687 147.08 45.3485 146.943C45.1284 146.804 44.9615 146.62 44.8478 146.393C44.7342 146.163 44.6774 145.911 44.6774 145.636ZM45.5048 145.253V145.636C45.5048 145.84 45.5533 146.025 45.6504 146.19C45.7475 146.356 45.9167 146.439 46.1582 146.439C46.3973 146.439 46.5642 146.356 46.6589 146.19C46.7536 146.025 46.801 145.84 46.801 145.636V145.253C46.801 145.049 46.7548 144.865 46.6625 144.699C46.5725 144.533 46.4044 144.45 46.1582 144.45C45.9215 144.45 45.7534 144.533 45.6539 144.699C45.5545 144.865 45.5048 145.049 45.5048 145.253ZM41.0197 141.474V141.091C41.0197 140.816 41.0765 140.564 41.1902 140.335C41.3062 140.105 41.4743 139.921 41.6944 139.784C41.917 139.647 42.1857 139.578 42.5005 139.578C42.8225 139.578 43.0924 139.647 43.3102 139.784C43.528 139.921 43.6925 140.105 43.8038 140.335C43.9151 140.564 43.9707 140.816 43.9707 141.091V141.474C43.9707 141.749 43.9139 142.001 43.8002 142.231C43.689 142.458 43.5233 142.642 43.3031 142.781C43.0853 142.919 42.8178 142.987 42.5005 142.987C42.1786 142.987 41.9075 142.919 41.6873 142.781C41.4695 142.642 41.3038 142.458 41.1902 142.231C41.0765 142.001 41.0197 141.749 41.0197 141.474ZM41.8507 141.091V141.474C41.8507 141.678 41.898 141.863 41.9927 142.028C42.0898 142.194 42.2591 142.277 42.5005 142.277C42.7373 142.277 42.903 142.194 42.9977 142.028C43.0948 141.863 43.1433 141.678 43.1433 141.474V141.091C43.1433 140.887 43.0971 140.703 43.0048 140.537C42.9125 140.371 42.7444 140.288 42.5005 140.288C42.2638 140.288 42.0957 140.371 41.9963 140.537C41.8992 140.703 41.8507 140.887 41.8507 141.091ZM41.3571 147L46.3571 139.727H47.2058L42.2058 147H41.3571Z" fill="white"/>
<defs>
<linearGradient id="paint0_linear_298_2" x1="59" y1="221" x2="59" y2="438.424" gradientUnits="userSpaceOnUse">
<stop stop-color="white" stop-opacity="0.1"/>
<stop offset="0.535" stop-color="white"/>
<stop offset="0.98" stop-color="white" stop-opacity="0.1"/>
<stop offset="1" stop-color="white" stop-opacity="0"/>
</linearGradient>
<linearGradient id="paint1_linear_298_2" x1="59" y1="79" x2="59" y2="115.237" gradientUnits="userSpaceOnUse">
<stop stop-color="white" stop-opacity="0.1"/>
<stop offset="0.535" stop-color="white"/>
<stop offset="0.98" stop-color="white" stop-opacity="0.1"/>
<stop offset="1" stop-color="white" stop-opacity="0"/>
</linearGradient>
<linearGradient id="paint2_linear_298_2" x1="175" y1="221" x2="175" y2="438.424" gradientUnits="userSpaceOnUse">
<stop stop-color="white" stop-opacity="0.1"/>
<stop offset="0.535" stop-color="white"/>
<stop offset="0.98" stop-color="white" stop-opacity="0.1"/>
<stop offset="1" stop-color="white" stop-opacity="0"/>
</linearGradient>
<linearGradient id="paint3_linear_298_2" x1="175" y1="79" x2="175" y2="115.237" gradientUnits="userSpaceOnUse">
<stop stop-color="white" stop-opacity="0.1"/>
<stop offset="0.535" stop-color="white"/>
<stop offset="0.98" stop-color="white" stop-opacity="0.1"/>
<stop offset="1" stop-color="white" stop-opacity="0"/>
</linearGradient>
<linearGradient id="paint4_linear_298_2" x1="292" y1="221" x2="292" y2="438.424" gradientUnits="userSpaceOnUse">
<stop stop-color="white" stop-opacity="0.1"/>
<stop offset="0.535" stop-color="white"/>
<stop offset="0.98" stop-color="white" stop-opacity="0.1"/>
<stop offset="1" stop-color="white" stop-opacity="0"/>
</linearGradient>
<linearGradient id="paint5_linear_298_2" x1="292" y1="79" x2="292" y2="115.237" gradientUnits="userSpaceOnUse">
<stop stop-color="white" stop-opacity="0.1"/>
<stop offset="0.535" stop-color="white"/>
<stop offset="0.98" stop-color="white" stop-opacity="0.1"/>
<stop offset="1" stop-color="white" stop-opacity="0"/>
</linearGradient>
<linearGradient id="paint6_linear_298_2" x1="409" y1="221" x2="409" y2="438.424" gradientUnits="userSpaceOnUse">
<stop stop-color="white" stop-opacity="0.1"/>
<stop offset="0.535" stop-color="white"/>
<stop offset="0.98" stop-color="white" stop-opacity="0.1"/>
<stop offset="1" stop-color="white" stop-opacity="0"/>
</linearGradient>
<linearGradient id="paint7_linear_298_2" x1="409" y1="79" x2="409" y2="115.237" gradientUnits="userSpaceOnUse">
<stop stop-color="white" stop-opacity="0.1"/>
<stop offset="0.535" stop-color="white"/>
<stop offset="0.98" stop-color="white" stop-opacity="0.1"/>
<stop offset="1" stop-color="white" stop-opacity="0"/>
</linearGradient>
<linearGradient id="paint8_linear_298_2" x1="526" y1="114" x2="526" y2="442.207" gradientUnits="userSpaceOnUse">
<stop stop-color="white" stop-opacity="0.1"/>
<stop offset="0.535" stop-color="white"/>
<stop offset="0.98" stop-color="white" stop-opacity="0.1"/>
<stop offset="1" stop-color="white" stop-opacity="0"/>
</linearGradient>
<linearGradient id="paint9_linear_298_2" x1="526" y1="79" x2="526" y2="115.237" gradientUnits="userSpaceOnUse">
<stop stop-color="white" stop-opacity="0.1"/>
<stop offset="0.535" stop-color="white"/>
<stop offset="0.98" stop-color="white" stop-opacity="0.1"/>
<stop offset="1" stop-color="white" stop-opacity="0"/>
</linearGradient>
<linearGradient id="paint10_linear_298_2" x1="643" y1="114" x2="643" y2="442.207" gradientUnits="userSpaceOnUse">
<stop stop-color="white" stop-opacity="0.1"/>
<stop offset="0.535" stop-color="white"/>
<stop offset="0.98" stop-color="white" stop-opacity="0.1"/>
<stop offset="1" stop-color="white" stop-opacity="0"/>
</linearGradient>
<linearGradient id="paint11_linear_298_2" x1="643" y1="79" x2="643" y2="115.237" gradientUnits="userSpaceOnUse">
<stop stop-color="white" stop-opacity="0.1"/>
<stop offset="0.535" stop-color="white"/>
<stop offset="0.98" stop-color="white" stop-opacity="0.1"/>
<stop offset="1" stop-color="white" stop-opacity="0"/>
</linearGradient>
<linearGradient id="paint12_linear_298_2" x1="760" y1="114" x2="760" y2="442.207" gradientUnits="userSpaceOnUse">
<stop stop-color="white" stop-opacity="0.1"/>
<stop offset="0.535" stop-color="white"/>
<stop offset="0.98" stop-color="white" stop-opacity="0.1"/>
<stop offset="1" stop-color="white" stop-opacity="0"/>
</linearGradient>
<linearGradient id="paint13_linear_298_2" x1="760" y1="79" x2="760" y2="115.237" gradientUnits="userSpaceOnUse">
<stop stop-color="white" stop-opacity="0.1"/>
<stop offset="0.535" stop-color="white"/>
<stop offset="0.98" stop-color="white" stop-opacity="0.1"/>
<stop offset="1" stop-color="white" stop-opacity="0"/>
</linearGradient>
<linearGradient id="paint14_linear_298_2" x1="0" y1="38" x2="867.626" y2="37.9997" gradientUnits="userSpaceOnUse">
<stop stop-color="white" stop-opacity="0.1"/>
<stop offset="0.535" stop-color="white"/>
<stop offset="0.98" stop-color="white" stop-opacity="0.1"/>
<stop offset="1" stop-color="white" stop-opacity="0"/>
</linearGradient>
<linearGradient id="paint15_linear_298_2" x1="242.5" y1="114" x2="242.5" y2="221" gradientUnits="userSpaceOnUse">
<stop stop-color="white"/>
<stop offset="1" stop-color="white" stop-opacity="0.5"/>
</linearGradient>
<linearGradient id="paint16_linear_298_2" x1="443.5" y1="128" x2="443.5" y2="153" gradientUnits="userSpaceOnUse">
<stop stop-color="white" stop-opacity="0.3"/>
<stop offset="1" stop-color="#868686" stop-opacity="0.27"/>
</linearGradient>
</defs>
</svg>
